<svg width="280" height="240" viewBox="0 0 280 240" fill="none" xmlns="http://www.w3.org/2000/svg">
<path d="M236.505 109.866L209.036 106.479L210.541 82.3965H236.505V109.866Z" fill="#FFB6B6"/>
<path d="M252.136 139.293C251.705 139.292 251.283 139.165 250.923 138.928C250.563 138.69 250.28 138.352 250.109 137.956L246.295 129.057L257.601 129.096L265.369 120.881L269.094 129.58C269.32 130.113 269.328 130.713 269.117 131.252C268.905 131.79 268.491 132.225 267.963 132.462L253.031 139.102C252.75 139.228 252.445 139.293 252.136 139.293Z" fill="#E6E6E6"/>
<path d="M255.883 130.218C255.789 130.218 255.695 130.215 255.6 130.209L246.516 129.695L246.271 129.144L246.442 129.067L265.337 120.653L265.583 121.205L259.803 128.348C259.329 128.931 258.732 129.402 258.054 129.725C257.376 130.049 256.634 130.217 255.883 130.218Z" fill="#CCCCCC"/>
<path d="M239.884 47.8284L213.064 48.1637C212.56 48.1631 212.078 47.9629 211.722 47.6069C211.366 47.2509 211.165 46.7683 211.165 46.2649V37.4033C211.165 33.6541 212.654 30.0585 215.305 27.4075C217.956 24.7564 221.552 23.2671 225.301 23.2671C229.05 23.2671 232.646 24.7564 235.297 27.4075C237.948 30.0585 239.437 33.6541 239.437 37.4033L241.783 45.9297C241.782 46.4331 241.582 46.9157 241.226 47.2716C240.87 47.6276 240.387 47.8278 239.884 47.8284Z" fill="#2F2E41"/>
<path d="M253.014 126.619C252.568 126.215 252.216 125.718 251.982 125.164C251.749 124.609 251.64 124.009 251.663 123.408C251.686 122.806 251.841 122.217 252.117 121.682C252.392 121.147 252.782 120.678 253.258 120.31L248.592 106.441L255.943 108.384L259.248 121.256C259.817 122.097 260.058 123.117 259.923 124.124C259.789 125.13 259.29 126.052 258.52 126.714C257.75 127.376 256.764 127.732 255.749 127.715C254.734 127.697 253.761 127.308 253.014 126.619Z" fill="#FFB6B6"/>
<path d="M221.214 215.829L215.708 214.936L216.534 193.277L224.659 194.594L221.214 215.829Z" fill="#FFB6B6"/>
<path d="M248.65 204.346L243.671 206.859L230.483 187.72L237.832 184.013L248.65 204.346Z" fill="#FFB6B6"/>
<path d="M225.184 48.0719C230.591 48.0719 234.974 43.6889 234.974 38.2823C234.974 32.8756 230.591 28.4927 225.184 28.4927C219.777 28.4927 215.395 32.8756 215.395 38.2823C215.395 43.6889 219.777 48.0719 225.184 48.0719Z" fill="#FFB8B8"/>
<path d="M232.935 197.388L210.008 138.925C201.803 116.512 209.134 101.064 209.209 100.91L209.247 100.835L209.325 100.807C210.267 104.471 231.614 104.222 236.506 98.5771C239.361 100.976 243.161 106.623 243.975 113.371C244.826 120.611 244.181 127.949 242.08 134.929L233.049 165.544L244.222 190.714L232.935 197.388Z" fill="#2F2E41"/>
<path d="M221.879 161.125L213.601 203.102L224.626 205.181L231.563 168.846L221.879 161.125Z" fill="#2F2E41"/>
<path d="M209.789 89.5462C211.553 90.0173 228.987 97.2014 237.258 89.9225L243.749 57.8759L235.973 55.4232L233.259 52.1233C232.965 51.7654 232.595 51.4784 232.175 51.2835C231.754 51.0885 231.296 50.9907 230.833 50.9974L221.186 51.1264C220.76 51.1326 220.339 51.2269 219.95 51.4035C219.562 51.5801 219.214 51.8351 218.928 52.1525L215.838 55.5985L208.859 57.2229L209.789 89.5462Z" fill="#F0178E"/>
<path d="M240.789 60.3757L242.902 57.5615C242.902 57.5615 246.774 58.5789 248.742 64.1274C250.709 69.6758 258.769 114.006 258.769 114.006L250.089 118.036L238.335 78.8577L240.789 60.3757Z" fill="#F0178E"/>
<path d="M171.234 113.168C171.316 112.571 171.528 112 171.855 111.495C172.181 110.989 172.615 110.561 173.124 110.241C173.634 109.921 174.208 109.717 174.806 109.642C175.403 109.568 176.009 109.626 176.582 109.811L185.404 98.1372L187.945 105.304L179.177 115.291C178.803 116.234 178.096 117.007 177.189 117.463C176.283 117.919 175.241 118.026 174.261 117.764C173.281 117.502 172.431 116.889 171.873 116.042C171.315 115.195 171.088 114.172 171.234 113.168Z" fill="#FFB6B6"/>
<path d="M211.959 59.7544L209.036 57.1851C209.036 57.1851 205.974 57.9576 204.007 63.506C202.04 69.0544 176.93 106.253 176.93 106.253L185.61 110.283L214.414 78.2348L211.959 59.7544Z" fill="#F0178E"/>
<path d="M235.385 37.6366H221.702C221.445 37.6363 221.197 37.5423 221.004 37.3722C220.812 37.202 220.688 36.9675 220.655 36.7124L220.478 35.2953C220.461 35.1592 220.4 35.0323 220.304 34.9338C220.209 34.8354 220.084 34.7707 219.948 34.7494C219.813 34.7282 219.674 34.7516 219.553 34.8161C219.432 34.8806 219.335 34.9828 219.277 35.1072L218.379 37.0277C218.294 37.2093 218.159 37.3628 217.99 37.4706C217.82 37.5783 217.624 37.6357 217.423 37.6362H215.345C215.066 37.6366 214.798 37.526 214.6 37.3287C214.402 37.1314 214.29 36.8636 214.29 36.5842C214.29 36.5496 214.292 36.5151 214.295 36.4806L215.115 27.9203C215.132 27.7373 215.197 27.5619 215.302 27.4114C215.408 27.2608 215.551 27.1402 215.717 27.0613C221.983 24.136 228.338 24.1397 234.604 27.0726C234.763 27.1473 234.901 27.2605 235.005 27.4019C235.109 27.5433 235.177 27.7084 235.201 27.8823L236.429 36.4313C236.45 36.581 236.44 36.7335 236.397 36.8786C236.354 37.0237 236.281 37.1579 236.182 37.2721C236.083 37.3863 235.96 37.4779 235.823 37.5406C235.685 37.6033 235.536 37.6356 235.385 37.6354L235.385 37.6366Z" fill="#2F2E41"/>
<path d="M14.6645 24.772C14.1887 24.7715 13.732 24.9597 13.3948 25.2954C13.0575 25.6311 12.8672 26.0869 12.8655 26.5627L12.4233 218.637C12.4228 219.113 12.6111 219.569 12.9468 219.907C13.2825 220.244 13.7383 220.434 14.2141 220.436L168.95 220.792C169.426 220.792 169.883 220.604 170.22 220.268C170.557 219.932 170.748 219.477 170.749 219.001L171.191 26.9266C171.192 26.4507 171.004 25.994 170.668 25.6567C170.332 25.3195 169.876 25.1292 169.4 25.1276L14.6645 24.772Z" fill="#E6E6E6"/>
<path d="M20.3968 30.5293C19.921 30.5288 19.4643 30.717 19.1271 31.0527C18.7898 31.3885 18.5995 31.8442 18.5978 32.3201L18.1838 212.906C18.1833 213.381 18.3716 213.838 18.7073 214.175C19.043 214.513 19.4988 214.703 19.9746 214.705L163.222 215.034C163.698 215.035 164.155 214.847 164.492 214.511C164.829 214.175 165.02 213.719 165.021 213.243L165.435 32.658C165.436 32.1821 165.247 31.7254 164.912 31.3881C164.576 31.0508 164.12 30.8605 163.644 30.8589L20.3968 30.5293Z" fill="white"/>
<path d="M144.615 108.947L39.0647 108.704C38.3561 108.694 37.6798 108.405 37.1827 107.9C36.6857 107.395 36.4078 106.714 36.4094 106.005C36.4111 105.297 36.6921 104.617 37.1915 104.114C37.6909 103.611 38.3684 103.325 39.0772 103.319L144.627 103.562C145.336 103.572 146.012 103.861 146.509 104.366C147.006 104.871 147.284 105.552 147.282 106.261C147.281 106.969 147 107.649 146.5 108.152C146.001 108.655 145.323 108.94 144.615 108.947V108.947Z" fill="#E6E6E6"/>
<path d="M145.637 58.776L75.6111 58.615C74.6244 58.6127 73.8274 57.4052 73.8308 55.9181C73.8342 54.431 74.6368 53.2272 75.6235 53.2295L145.649 53.3906C146.636 53.3928 147.433 54.6003 147.429 56.0874C147.426 57.5745 146.623 58.7798 145.637 58.776Z" fill="#E6E6E6"/>
<path d="M145.601 74.214L75.5752 74.053C74.5885 74.0507 73.7915 72.8432 73.7949 71.3561C73.7983 69.869 74.601 68.6652 75.5876 68.6675L145.613 68.8285C146.6 68.8308 147.397 70.0383 147.394 71.5254C147.39 73.0125 146.587 74.2163 145.601 74.214Z" fill="#E6E6E6"/>
<path d="M144.573 126.359L39.0232 126.116C38.3146 126.106 37.6383 125.817 37.1412 125.312C36.6442 124.807 36.3663 124.126 36.3679 123.417C36.3696 122.709 36.6506 122.029 37.15 121.526C37.6494 121.023 38.3269 120.738 39.0357 120.731L144.586 120.974C145.3 120.967 145.987 121.244 146.497 121.745C147.006 122.245 147.297 122.927 147.303 123.641C147.31 124.355 147.032 125.043 146.532 125.553C146.032 126.062 145.35 126.352 144.635 126.359C144.615 126.359 144.594 126.359 144.573 126.359Z" fill="#E6E6E6"/>
<path d="M144.536 143.771L38.9856 143.528C38.277 143.518 37.6007 143.229 37.1036 142.724C36.6066 142.219 36.3287 141.538 36.3303 140.829C36.332 140.121 36.613 139.441 37.1124 138.938C37.6118 138.435 38.2893 138.15 38.9981 138.143L144.548 138.386C144.902 138.382 145.253 138.448 145.582 138.58C145.91 138.712 146.209 138.907 146.462 139.155C146.715 139.403 146.917 139.698 147.055 140.024C147.194 140.349 147.267 140.699 147.271 141.053C147.274 141.407 147.207 141.758 147.075 142.087C146.942 142.415 146.747 142.714 146.498 142.966C146.25 143.219 145.955 143.42 145.629 143.558C145.303 143.696 144.953 143.769 144.599 143.771C144.578 143.772 144.557 143.772 144.536 143.771Z" fill="#E6E6E6"/>
<path d="M144.495 161.183L38.9446 160.94C38.2359 160.93 37.5597 160.642 37.0626 160.136C36.5655 159.631 36.2877 158.95 36.2893 158.242C36.2909 157.533 36.5719 156.853 37.0714 156.35C37.5708 155.847 38.2483 155.562 38.957 155.555L144.507 155.798C145.221 155.792 145.907 156.07 146.416 156.57C146.925 157.07 147.215 157.752 147.222 158.465C147.229 159.179 146.952 159.866 146.452 160.376C145.953 160.885 145.271 161.176 144.558 161.184C144.537 161.184 144.516 161.184 144.495 161.183Z" fill="#E6E6E6"/>
<path d="M92.5259 177.843L38.9043 177.6C38.1957 177.59 37.5194 177.301 37.0223 176.796C36.5253 176.291 36.2474 175.61 36.249 174.901C36.2507 174.193 36.5317 173.513 37.0311 173.01C37.5305 172.507 38.208 172.221 38.9168 172.215L92.5384 172.458C93.2517 172.452 93.9381 172.73 94.4469 173.23C94.9556 173.73 95.2452 174.412 95.2519 175.125C95.2587 175.838 94.9821 176.525 94.4829 177.035C93.9836 177.545 93.3026 177.835 92.5893 177.843C92.5682 177.843 92.5471 177.843 92.5259 177.843Z" fill="#E6E6E6"/>
<path d="M92.4861 195.256L38.8645 195.013C38.1559 195.003 37.4796 194.714 36.9825 194.209C36.4855 193.703 36.2076 193.023 36.2092 192.314C36.2109 191.605 36.4919 190.926 36.9913 190.423C37.4907 189.92 38.1682 189.634 38.877 189.627L92.4986 189.871C93.2119 189.865 93.8983 190.143 94.407 190.643C94.9157 191.143 95.2052 191.824 95.212 192.538C95.2187 193.251 94.9421 193.938 94.4429 194.448C93.9437 194.957 93.2627 195.248 92.5494 195.256C92.5283 195.256 92.5072 195.256 92.4861 195.256Z" fill="#E6E6E6"/>
<path d="M122.487 38.2199V25.408C122.508 24.4563 122.342 23.5099 121.997 22.6226C121.652 21.7354 121.136 20.9248 120.477 20.237C119.819 19.5493 119.032 18.9979 118.161 18.6144C117.29 18.2309 116.352 18.0227 115.4 18.0018C114.448 17.9808 113.502 18.1475 112.615 18.4924C111.727 18.8372 110.917 19.3534 110.229 20.0116C109.541 20.6697 108.99 21.4568 108.606 22.328C108.223 23.1993 108.015 24.1375 107.994 25.0892H109.589C109.646 23.6285 110.265 22.2465 111.318 21.2324C112.371 20.2183 113.775 19.6508 115.237 19.6486H115.32C116.821 19.6727 118.251 20.2915 119.296 21.3692C120.341 22.4468 120.915 23.8952 120.893 25.3961V38.3222C120.879 39.3195 120.474 40.2716 119.765 40.9726C119.055 41.6737 118.098 42.0674 117.101 42.0687H117.054C116.048 42.0547 115.087 41.6415 114.385 40.9199C113.683 40.1983 113.296 39.2274 113.309 38.2205L113.318 25.4948C113.316 24.9881 113.516 24.5016 113.873 24.1422C114.23 23.7828 114.715 23.5799 115.222 23.5783C115.728 23.5766 116.215 23.7763 116.574 24.1334C116.934 24.4904 117.136 24.9756 117.138 25.4823V29.1795C117.138 29.391 117.222 29.5939 117.372 29.7434C117.521 29.893 117.724 29.977 117.935 29.977C118.147 29.977 118.35 29.893 118.499 29.7434C118.649 29.5939 118.733 29.391 118.733 29.1795V25.4696C118.732 25.0094 118.641 24.5538 118.464 24.1289C118.287 23.704 118.028 23.3181 117.702 22.9932C117.376 22.6683 116.989 22.4108 116.564 22.2354C116.138 22.06 115.682 21.9702 115.222 21.9709C114.762 21.9717 114.306 22.0632 113.881 22.24C113.457 22.4169 113.071 22.6757 112.746 23.0017C112.421 23.3277 112.163 23.7145 111.988 24.14C111.813 24.5656 111.723 25.0215 111.723 25.4817L111.715 38.2103C111.699 39.6384 112.251 41.0145 113.248 42.0366C114.246 43.0587 115.608 43.6434 117.036 43.6623H117.103C118.52 43.6601 119.879 43.1004 120.887 42.104C121.895 41.1076 122.47 39.7547 122.489 38.3376C122.488 38.2965 122.488 38.2548 122.487 38.2199Z" fill="#F0178E"/>
<path d="M144.314 183.898C144.317 186.019 143.938 188.124 143.197 190.112C142.86 191.023 142.447 191.903 141.963 192.744C140.404 195.464 138.155 197.724 135.442 199.296C132.73 200.868 129.651 201.695 126.516 201.695C123.381 201.695 120.301 200.868 117.589 199.296C114.877 197.724 112.627 195.464 111.069 192.744C110.911 192.47 110.761 192.193 110.62 191.911C109.41 189.511 108.759 186.868 108.717 184.181C108.674 181.494 109.24 178.832 110.373 176.394C111.507 173.957 113.177 171.808 115.259 170.109C117.341 168.409 119.781 167.203 122.396 166.582C125.011 165.96 127.732 165.938 130.357 166.518C132.981 167.098 135.44 168.265 137.549 169.932C139.658 171.598 141.362 173.72 142.533 176.139C143.705 178.557 144.314 181.21 144.314 183.898Z" fill="#FEE8F4"/>
<path d="M127.441 186.903C129.32 186.903 130.844 185.379 130.844 183.5C130.844 181.621 129.32 180.097 127.441 180.097C125.562 180.097 124.038 181.621 124.038 183.5C124.038 185.379 125.562 186.903 127.441 186.903Z" fill="#F0178E"/>
<path d="M110.62 191.911C112.119 190.291 114.123 187.718 116.003 189.577C116.946 190.454 118.423 192.626 119.836 191.206L130.872 180.17C131.08 179.965 131.327 179.803 131.598 179.695C131.869 179.586 132.159 179.533 132.451 179.538C132.743 179.544 133.031 179.607 133.298 179.725C133.565 179.843 133.805 180.014 134.006 180.226L143.197 190.112C142.861 191.022 142.448 191.903 141.963 192.744H111.069L110.62 191.911Z" fill="#3F3D56"/>
<path d="M64.5401 63.1083C64.5428 65.2299 64.1644 67.3347 63.4231 69.3225C63.0865 70.233 62.6736 71.1135 62.1887 71.9544C60.63 74.6744 58.3807 76.9345 55.6683 78.5063C52.9559 80.078 49.8766 80.9058 46.7417 80.9058C43.6068 80.9058 40.5275 80.078 37.8152 78.5063C35.1028 76.9345 32.8535 74.6744 31.2948 71.9544C31.137 71.6809 30.9873 71.4033 30.8459 71.1216C29.636 68.7216 28.9853 66.0788 28.9427 63.3915C28.9 60.7041 29.4665 58.042 30.5995 55.6049C31.7326 53.1677 33.4029 51.0188 35.485 49.3193C37.5672 47.6198 40.0072 46.4139 42.6219 45.7921C45.2367 45.1702 47.9583 45.1486 50.5826 45.7287C53.2069 46.3089 55.6658 47.4758 57.7747 49.142C59.8836 50.8081 61.5879 52.9302 62.7596 55.349C63.9313 57.7679 64.54 60.4206 64.5401 63.1083Z" fill="#FEE8F4"/>
<path d="M47.6671 66.113C49.5463 66.113 51.0698 64.5895 51.0698 62.7103C51.0698 60.831 49.5463 59.3076 47.6671 59.3076C45.7878 59.3076 44.2644 60.831 44.2644 62.7103C44.2644 64.5895 45.7878 66.113 47.6671 66.113Z" fill="#F0178E"/>
<path d="M30.8459 71.1214C32.3451 69.5012 34.3493 66.9289 36.229 68.7876C37.1724 69.6643 38.6488 71.8368 40.062 70.4165L51.0982 59.3804C51.306 59.1752 51.5527 59.0137 51.8237 58.9053C52.0948 58.7968 52.3848 58.7437 52.6767 58.7489C52.9687 58.7541 53.2566 58.8176 53.5236 58.9357C53.7906 59.0538 54.0314 59.224 54.2316 59.4365L63.4232 69.3224C63.0866 70.2329 62.6736 71.1133 62.1888 71.9543H31.2948L30.8459 71.1214Z" fill="#3F3D56"/>
<path d="M116.468 40.6282C117.507 40.6282 118.35 39.7858 118.35 38.7467C118.35 37.7076 117.507 36.8652 116.468 36.8652C115.429 36.8652 114.587 37.7076 114.587 38.7467C114.587 39.7858 115.429 40.6282 116.468 40.6282Z" fill="#F0178E"/>
<path d="M224.041 220.872H220.46L219.82 217.491L218.183 220.872H208.685C208.23 220.872 207.787 220.726 207.42 220.457C207.053 220.187 206.783 219.807 206.647 219.372C206.512 218.938 206.519 218.471 206.667 218.041C206.815 217.61 207.098 217.239 207.472 216.98L215.057 211.742V208.324L223.035 208.8L224.041 220.872Z" fill="#2F2E41"/>
<path d="M255.773 212.491L252.764 214.433L250.393 211.94L250.852 215.668L242.873 220.82C242.49 221.067 242.039 221.186 241.585 221.158C241.13 221.13 240.697 220.958 240.347 220.666C239.997 220.375 239.75 219.979 239.641 219.537C239.533 219.095 239.568 218.629 239.742 218.209L243.273 209.694L241.419 206.823L248.379 202.895L255.773 212.491Z" fill="#2F2E41"/>
<path d="M280 220.47H0V221.222H280V220.47Z" fill="#CCCCCC"/>
</svg>
