<svg width="280" height="241" viewBox="0 0 280 241" fill="none" xmlns="http://www.w3.org/2000/svg">
<path d="M13.5969 187.887C18.6602 191.534 25.2217 191.717 31.5641 191.269C32.4498 191.207 33.3291 191.133 34.2004 191.054C34.2056 191.053 34.2125 191.054 34.2179 191.052C34.2597 191.048 34.3017 191.044 34.3418 191.042C34.5216 191.025 34.7015 191.008 34.8796 190.991L34.8375 191.072L34.7055 191.321C34.7529 191.237 34.8004 191.156 34.8478 191.072C34.8618 191.047 34.8774 191.022 34.8913 190.997C36.5344 188.138 38.164 185.174 38.5796 181.909C39.0093 178.52 37.8018 174.683 34.8193 173.017C34.4281 172.8 34.0139 172.626 33.5843 172.5C33.4059 172.446 33.2251 172.402 33.0423 172.363C31.9237 172.115 30.7592 172.169 29.6684 172.52C28.5776 172.87 27.6 173.506 26.836 174.36C26.0721 175.213 25.5494 176.256 25.3216 177.378C25.0939 178.501 25.1694 179.665 25.5403 180.749C23.0117 178.156 23.4834 173.95 24.3556 170.434C25.2296 166.919 26.2876 163.007 24.51 159.85C23.5219 158.092 21.7843 157.002 19.8343 156.562C19.7744 156.55 19.7147 156.537 19.6548 156.526C17.3313 156.055 14.9159 156.478 12.8909 157.711C9.16227 160.06 7.24719 164.515 6.62563 168.879C5.62417 175.902 7.84037 183.739 13.5969 187.887Z" fill="#E8FEF4"/>
<path d="M15.2316 176.629C15.3786 178.178 15.7507 179.698 16.3362 181.139C16.8757 182.415 17.603 183.603 18.4938 184.664C20.3459 186.831 22.6914 188.522 25.3331 189.595C27.3313 190.413 29.4248 190.976 31.5641 191.269C32.4497 191.207 33.3291 191.133 34.2003 191.054C34.2056 191.053 34.2125 191.053 34.2178 191.052C34.2597 191.048 34.3016 191.044 34.3417 191.042C34.5215 191.025 34.7014 191.008 34.8796 190.991L34.8375 191.071L34.7054 191.321C34.7529 191.237 34.8003 191.156 34.8478 191.072C34.8617 191.047 34.8774 191.022 34.8913 190.997C33.2875 189.399 32.0901 187.44 31.3993 185.284C30.7086 183.128 30.5447 180.838 30.9213 178.606C31.3155 176.389 32.2279 174.297 33.5842 172.5C33.4058 172.446 33.225 172.402 33.0422 172.363C32.5267 173.068 32.0746 173.817 31.691 174.601C30.3148 177.398 29.8757 180.564 30.4388 183.63C30.9623 186.405 32.2666 188.972 34.1984 191.032C34.0293 191.02 33.8585 191.006 33.6913 190.991C30.5254 190.722 27.3659 190.042 24.4943 188.648C22.0398 187.485 19.9088 185.736 18.2891 183.556C16.55 181.158 15.7837 178.273 15.652 175.341C15.5507 172.181 15.8818 169.023 16.6362 165.954C17.3677 162.824 18.4795 159.796 19.9467 156.936C19.9795 156.871 19.9861 156.796 19.9652 156.727C19.9442 156.657 19.8973 156.598 19.8342 156.562C19.7816 156.527 19.7171 156.514 19.6547 156.525C19.6242 156.534 19.5959 156.548 19.5719 156.569C19.5479 156.589 19.5289 156.615 19.5162 156.644C19.3352 156.997 19.1576 157.351 18.9867 157.708C17.5636 160.686 16.5158 163.828 15.8676 167.064C15.2382 170.185 14.9023 173.451 15.2316 176.629Z" fill="white"/>
<path d="M269.131 185.639C261.491 191.142 251.591 191.419 242.021 190.742C240.685 190.648 239.358 190.538 238.044 190.418C238.036 190.416 238.025 190.417 238.017 190.415C237.954 190.409 237.891 190.403 237.83 190.399C237.559 190.374 237.288 190.348 237.019 190.323L237.082 190.444L237.282 190.82C237.21 190.694 237.138 190.571 237.067 190.445C237.046 190.407 237.022 190.37 237.001 190.332C234.522 186.018 232.063 181.545 231.436 176.619C230.788 171.506 232.61 165.717 237.11 163.204C237.7 162.875 238.325 162.613 238.973 162.423C239.242 162.341 239.515 162.275 239.791 162.216C241.479 161.842 243.236 161.923 244.882 162.452C246.527 162.982 248.003 163.94 249.155 165.229C250.308 166.517 251.097 168.089 251.44 169.784C251.784 171.478 251.67 173.233 251.11 174.869C254.926 170.957 254.214 164.61 252.898 159.306C251.579 154.002 249.983 148.1 252.665 143.336C254.156 140.684 256.777 139.039 259.72 138.376C259.81 138.357 259.9 138.337 259.99 138.32C263.496 137.61 267.141 138.249 270.196 140.109C275.822 143.654 278.711 150.376 279.649 156.96C281.16 167.556 277.816 179.381 269.131 185.639Z" fill="#E8FEF4"/>
<path d="M266.664 168.653C266.442 170.99 265.881 173.283 264.998 175.458C264.183 177.383 263.086 179.175 261.742 180.776C258.996 184.078 255.366 186.562 251.423 188.216C248.408 189.451 245.249 190.3 242.021 190.742C240.685 190.648 239.358 190.537 238.044 190.418C238.036 190.416 238.025 190.417 238.017 190.415C237.954 190.409 237.891 190.403 237.83 190.399C237.559 190.374 237.288 190.348 237.019 190.323L237.082 190.444L237.282 190.82C237.21 190.694 237.138 190.571 237.067 190.445C237.046 190.407 237.022 190.37 237.001 190.332C239.421 187.921 241.228 184.965 242.27 181.712C243.312 178.459 243.559 175.004 242.991 171.636C242.396 168.291 241.02 165.134 238.973 162.423C239.242 162.341 239.515 162.275 239.791 162.216C240.569 163.28 241.251 164.409 241.83 165.593C243.906 169.813 244.569 174.59 243.719 179.216C242.929 183.403 240.961 187.277 238.047 190.384C238.302 190.366 238.56 190.345 238.812 190.322C243.589 189.917 248.356 188.89 252.688 186.787C256.392 185.033 259.607 182.394 262.051 179.105C264.675 175.486 265.831 171.133 266.03 166.709C266.24 161.972 265.626 157.153 264.545 152.546C263.441 147.824 261.764 143.255 259.55 138.94C259.5 138.842 259.49 138.729 259.522 138.624C259.554 138.519 259.624 138.43 259.72 138.376C259.799 138.323 259.896 138.302 259.99 138.32C260.036 138.333 260.079 138.355 260.115 138.386C260.152 138.417 260.18 138.456 260.199 138.499C260.472 139.032 260.74 139.566 260.998 140.105C263.146 144.597 264.726 149.339 265.705 154.221C266.654 158.931 267.161 163.857 266.664 168.653Z" fill="white"/>
<path d="M197.34 131.803H83.1048C82.8655 131.803 82.6362 131.707 82.4669 131.538C82.2977 131.369 82.2023 131.14 82.2017 130.9V48.9032C82.2022 48.6638 82.2975 48.4344 82.4667 48.2652C82.6359 48.0959 82.8653 48.0006 83.1046 48H197.34C197.579 48.0005 197.809 48.0958 197.978 48.265C198.147 48.4342 198.243 48.6636 198.243 48.9029V130.9C198.243 131.139 198.147 131.369 197.978 131.538C197.809 131.707 197.58 131.803 197.34 131.803ZM83.105 48.5518C83.0119 48.5521 82.9226 48.5892 82.8567 48.6551C82.7908 48.721 82.7537 48.8103 82.7535 48.9035V130.9C82.7538 130.993 82.791 131.082 82.8569 131.148C82.9228 131.214 83.012 131.251 83.1052 131.251H197.34C197.433 131.251 197.522 131.214 197.588 131.148C197.654 131.082 197.691 130.993 197.691 130.9V48.9032C197.691 48.8101 197.654 48.7208 197.588 48.655C197.522 48.5891 197.433 48.5521 197.34 48.5518H83.105Z" fill="#3F3D56"/>
<path d="M191.032 55.0423V113.314C191.032 113.506 190.995 113.697 190.921 113.875C190.847 114.053 190.739 114.215 190.603 114.351C190.467 114.487 190.305 114.595 190.127 114.669C189.95 114.743 189.759 114.781 189.566 114.781H90.6458C90.5754 114.781 90.505 114.776 90.4355 114.764C90.0866 114.714 89.7675 114.54 89.5366 114.273C89.3058 114.007 89.1787 113.666 89.1787 113.314V55.0423C89.1786 54.6533 89.333 54.2802 89.6079 54.0051C89.8829 53.73 90.2558 53.5753 90.6448 53.5752H189.565C189.758 53.5751 189.949 53.613 190.127 53.6866C190.305 53.7603 190.466 53.8683 190.602 54.0044C190.739 54.1405 190.847 54.3022 190.921 54.4801C190.994 54.658 191.032 54.8487 191.032 55.0413V55.0423Z" fill="#E8FEF4"/>
<path d="M114.114 88.2224C121.222 88.2224 126.984 82.46 126.984 75.3517C126.984 68.2434 121.222 62.481 114.114 62.481C107.005 62.481 101.243 68.2434 101.243 75.3517C101.243 82.46 107.005 88.2224 114.114 88.2224Z" fill="#13C273"/>
<path d="M154.475 115.015H91.3348C91.2558 115.016 91.1768 115.009 91.0989 114.996L120.961 63.27C121.143 62.9479 121.408 62.6799 121.728 62.4934C122.047 62.307 122.411 62.2087 122.781 62.2087C123.151 62.2087 123.515 62.307 123.834 62.4934C124.154 62.6799 124.419 62.9479 124.601 63.27L144.642 97.9821L145.602 99.643L154.475 115.015Z" fill="#3F3D56"/>
<path opacity="0.2" d="M154.475 115.015H132.917L143.5 99.6432L144.262 98.5359L144.642 97.9822L145.603 99.6432L154.475 115.015Z" fill="black"/>
<path d="M189.631 115.015H135.02L145.602 99.6431L146.364 98.5358L160.154 78.5038C161.058 77.1909 163.233 77.1091 164.296 78.2562C164.367 78.3344 164.433 78.4171 164.494 78.5038L189.631 115.015Z" fill="#3F3D56"/>
<path d="M85.8761 130.348C86.8437 130.348 87.6282 129.564 87.6282 128.596C87.6282 127.628 86.8437 126.844 85.8761 126.844C84.9085 126.844 84.124 127.628 84.124 128.596C84.124 129.564 84.9085 130.348 85.8761 130.348Z" fill="#13C273"/>
<path d="M85.8761 53.0923C86.8437 53.0923 87.6282 52.3079 87.6282 51.3402C87.6282 50.3726 86.8437 49.5881 85.8761 49.5881C84.9085 49.5881 84.124 50.3726 84.124 51.3402C84.124 52.3079 84.9085 53.0923 85.8761 53.0923Z" fill="#13C273"/>
<path d="M194.862 53.0923C195.83 53.0923 196.614 52.3079 196.614 51.3402C196.614 50.3726 195.83 49.5881 194.862 49.5881C193.894 49.5881 193.11 50.3726 193.11 51.3402C193.11 52.3079 193.894 53.0923 194.862 53.0923Z" fill="#13C273"/>
<path d="M194.862 130.348C195.83 130.348 196.614 129.564 196.614 128.596C196.614 127.628 195.83 126.844 194.862 126.844C193.894 126.844 193.11 127.628 193.11 128.596C193.11 129.564 193.894 130.348 194.862 130.348Z" fill="#13C273"/>
<path d="M60.9161 187.824H64.2988L65.9079 174.776L60.9155 174.776L60.9161 187.824Z" fill="#A0616A"/>
<path d="M70.8225 190.964L60.1913 190.965L60.1912 186.857L66.7148 186.857C67.8042 186.857 68.849 187.289 69.6193 188.06C70.3897 188.83 70.8225 189.875 70.8225 190.964Z" fill="#2F2E41"/>
<path d="M48.2239 187.824H51.6066L53.2158 174.776L48.2234 174.776L48.2239 187.824Z" fill="#A0616A"/>
<path d="M58.1304 190.964L47.4992 190.965L47.499 186.857L54.0227 186.857C55.1121 186.857 56.1568 187.289 56.9272 188.06C57.6975 188.83 58.1303 189.875 58.1304 190.964Z" fill="#2F2E41"/>
<path d="M48.6373 148.964C49.0018 148.73 49.3104 148.418 49.5414 148.052C49.7725 147.685 49.9203 147.272 49.9745 146.842C50.0288 146.413 49.9881 145.976 49.8554 145.564C49.7227 145.151 49.5011 144.773 49.2063 144.455L51.4336 112.847L45.0178 113.469L44.8416 144.423C44.3409 144.954 44.0521 145.649 44.0302 146.379C44.0082 147.108 44.2545 147.82 44.7223 148.38C45.1902 148.939 45.8472 149.308 46.5687 149.416C47.2903 149.524 48.0263 149.363 48.6373 148.964Z" fill="#A0616A"/>
<path d="M61.017 181.252C60.7135 181.251 60.4208 181.139 60.1938 180.938C59.9668 180.737 59.8211 180.459 59.784 180.158L57.8178 163.713C57.7901 163.481 57.6796 163.267 57.5066 163.111C57.3337 162.955 57.1099 162.866 56.8767 162.862C56.6436 162.858 56.4167 162.938 56.2381 163.088C56.0595 163.238 55.9411 163.447 55.9049 163.677L53.428 179.423C53.3832 179.716 53.2347 179.983 53.0096 180.175C52.7845 180.368 52.4977 180.473 52.2015 180.472H48.187C48.0231 180.472 47.8609 180.439 47.7097 180.376C47.5584 180.313 47.4211 180.221 47.3057 180.105C47.1903 179.989 47.099 179.851 47.0372 179.699C46.9753 179.547 46.9441 179.385 46.9453 179.221L48.8614 144.308C48.8621 144.011 48.97 143.724 49.1653 143.5C49.3607 143.276 49.6303 143.13 49.9246 143.089L64.8222 140.926C64.9992 140.901 65.1797 140.913 65.3513 140.964C65.5228 141.014 65.6815 141.101 65.8163 141.219C65.9511 141.337 66.059 141.482 66.1325 141.645C66.206 141.808 66.2434 141.985 66.2422 142.164L65.9823 179.842C65.9801 180.159 65.8563 180.464 65.6364 180.693C65.4164 180.922 65.117 181.058 64.7998 181.073L61.076 181.251C61.0562 181.252 61.0366 181.252 61.017 181.252Z" fill="#2F2E41"/>
<path d="M53.2935 145.627C51.8605 145.622 50.4393 145.369 49.0925 144.879C48.8642 144.795 48.6659 144.645 48.5226 144.449C48.3793 144.252 48.2974 144.017 48.2874 143.774C48.1588 140.922 47.4069 126.242 45.2179 117.287C44.7925 115.53 44.8965 113.687 45.517 111.989C46.1375 110.292 47.2466 108.816 48.7045 107.748C48.8223 107.663 48.9423 107.58 49.0646 107.498C50.3307 106.656 51.7913 106.151 53.3075 106.032C54.8238 105.913 56.3452 106.184 57.7271 106.819C59.1547 107.458 60.3951 108.452 61.3303 109.705C62.2654 110.959 62.8642 112.431 63.0698 113.981L66.6394 140.483C66.6623 140.649 66.6514 140.817 66.6072 140.979C66.5631 141.14 66.4866 141.291 66.3825 141.422C66.2806 141.551 66.1534 141.659 66.0086 141.739C65.8638 141.818 65.7044 141.867 65.54 141.883C64.3031 142.006 61.7377 142.486 58.4545 144.31C56.8757 145.185 55.0984 145.638 53.2935 145.627Z" fill="#13C273"/>
<path d="M48.9294 123.659L43.0551 122.067C42.7374 121.98 42.4671 121.771 42.3034 121.486C42.1396 121.2 42.0958 120.861 42.1816 120.543L44.2467 112.927C44.4679 112.111 44.9833 111.406 45.6936 110.947C46.4039 110.489 47.2587 110.31 48.0932 110.445C48.9277 110.579 49.6829 111.018 50.213 111.676C50.7432 112.335 51.0108 113.166 50.9642 114.01L50.4941 122.529C50.4839 122.714 50.4326 122.894 50.3439 123.056C50.2552 123.219 50.1313 123.359 49.9813 123.468C49.8314 123.576 49.6591 123.649 49.4771 123.682C49.2951 123.716 49.108 123.708 48.9294 123.659Z" fill="#13C273"/>
<path d="M55.4686 103.221C59.2113 103.221 62.2454 100.187 62.2454 96.4442C62.2454 92.7015 59.2113 89.6675 55.4686 89.6675C51.7259 89.6675 48.6919 92.7015 48.6919 96.4442C48.6919 100.187 51.7259 103.221 55.4686 103.221Z" fill="#A0616A"/>
<path d="M80.026 109.758C79.9922 109.907 79.9701 110.058 79.96 110.211L68.1074 117.048L65.2265 115.39L62.1553 119.411L68.3184 123.803L81.8404 113.136C82.3919 113.34 82.9924 113.371 83.5622 113.226C84.1319 113.08 84.6439 112.765 85.0299 112.321C85.416 111.877 85.6578 111.327 85.7233 110.742C85.7888 110.158 85.6748 109.567 85.3965 109.049C85.1183 108.531 84.6889 108.11 84.1655 107.842C83.642 107.574 83.0494 107.472 82.4664 107.549C81.8834 107.626 81.3377 107.878 80.9018 108.273C80.4658 108.668 80.1604 109.186 80.026 109.758Z" fill="#A0616A"/>
<path d="M67.1252 117.378L62.0196 120.692C61.7433 120.871 61.4073 120.933 61.0853 120.864C60.7633 120.796 60.4817 120.602 60.3022 120.326L56.0062 113.706C55.546 112.997 55.3647 112.143 55.4971 111.308C55.6295 110.473 56.0664 109.717 56.7234 109.185C57.3804 108.653 58.2111 108.383 59.0553 108.428C59.8994 108.472 60.6973 108.827 61.2949 109.425L67.3274 115.459C67.4582 115.59 67.5581 115.748 67.6198 115.923C67.6816 116.097 67.7035 116.283 67.6842 116.467C67.6648 116.651 67.6045 116.828 67.5078 116.986C67.4111 117.144 67.2804 117.278 67.1252 117.378Z" fill="#13C273"/>
<path d="M50.673 101.806C51.9373 103.152 54.2851 102.429 54.4498 100.59C54.4628 100.447 54.4618 100.303 54.447 100.16C54.362 99.3454 53.8912 98.6056 54.004 97.7451C54.0295 97.531 54.1093 97.3269 54.2357 97.1522C55.2432 95.8032 57.608 97.7556 58.5588 96.5343C59.1418 95.7855 58.4565 94.6065 58.9039 93.7695C59.4944 92.6649 61.2433 93.2098 62.3401 92.6049C63.5604 91.9318 63.4874 90.0595 62.6841 88.9207C61.7045 87.5318 59.9869 86.7908 58.2906 86.684C56.5944 86.5771 54.9099 87.0357 53.3263 87.6528C51.5271 88.354 49.7428 89.3231 48.6356 90.9052C47.2891 92.8291 47.1595 95.4158 47.8329 97.6655C48.2426 99.0341 49.6407 100.706 50.673 101.806Z" fill="#2F2E41"/>
<path d="M105.399 191.46H0.275914C0.202737 191.46 0.132557 191.43 0.0808131 191.379C0.0290692 191.327 0 191.257 0 191.184C0 191.11 0.0290692 191.04 0.0808131 190.989C0.132557 190.937 0.202737 190.908 0.275914 190.908H105.399C105.472 190.908 105.542 190.937 105.594 190.989C105.646 191.04 105.675 191.11 105.675 191.184C105.675 191.257 105.646 191.327 105.594 191.379C105.542 191.43 105.472 191.46 105.399 191.46Z" fill="#3F3D56"/>
<path d="M278.121 191.46H172.998C172.925 191.46 172.855 191.43 172.803 191.379C172.751 191.327 172.722 191.257 172.722 191.184C172.722 191.11 172.751 191.04 172.803 190.989C172.855 190.937 172.925 190.908 172.998 190.908H278.121C278.194 190.908 278.265 190.937 278.316 190.989C278.368 191.04 278.397 191.11 278.397 191.184C278.397 191.257 278.368 191.327 278.316 191.379C278.265 191.43 278.194 191.46 278.121 191.46Z" fill="#3F3D56"/>
<path d="M230.506 139.408C230.132 139.223 229.804 138.957 229.545 138.631C229.285 138.304 229.1 137.925 229.002 137.519C228.905 137.114 228.898 136.692 228.981 136.283C229.065 135.874 229.237 135.489 229.486 135.154L227.352 114.292H231.963L233.659 134.662C234.194 135.117 234.544 135.753 234.642 136.448C234.74 137.143 234.579 137.851 234.19 138.436C233.802 139.021 233.212 139.443 232.533 139.622C231.854 139.802 231.133 139.725 230.506 139.408Z" fill="#FFB8B8"/>
<path d="M226.272 102.778C229.875 102.778 232.796 99.8573 232.796 96.2542C232.796 92.6511 229.875 89.7302 226.272 89.7302C222.669 89.7302 219.748 92.6511 219.748 96.2542C219.748 99.8573 222.669 102.778 226.272 102.778Z" fill="#FFB8B8"/>
<path d="M224.788 126.413L215.051 124.287C214.795 124.231 214.564 124.092 214.395 123.892C214.225 123.692 214.126 123.442 214.112 123.181C214 121.008 213.919 115.387 215.592 110.14C215.916 109.134 216.437 108.203 217.127 107.402C217.816 106.601 218.659 105.947 219.606 105.478C220.552 105.008 221.584 104.734 222.638 104.67C223.693 104.606 224.75 104.755 225.746 105.106C226.798 105.476 227.759 106.063 228.568 106.83C229.376 107.598 230.013 108.527 230.437 109.558C230.861 110.588 231.062 111.697 231.027 112.811C230.993 113.925 230.723 115.019 230.236 116.021C228.076 120.455 226.716 123.666 226.194 125.565C226.113 125.859 225.921 126.112 225.66 126.269C225.398 126.427 225.086 126.479 224.788 126.413Z" fill="#13C273"/>
<path d="M215.615 188.392L212.358 188.392L210.809 175.831H215.615L215.615 188.392Z" fill="#FFB8B8"/>
<path d="M210.032 187.461H216.313V191.416H206.078C206.078 190.896 206.18 190.382 206.379 189.902C206.578 189.423 206.869 188.987 207.236 188.62C207.603 188.252 208.039 187.961 208.519 187.762C208.999 187.564 209.513 187.461 210.032 187.461Z" fill="#2F2E41"/>
<path d="M248.178 184.172L245.324 185.74L237.915 175.48L242.127 173.165L248.178 184.172Z" fill="#FFB8B8"/>
<path d="M242.838 186.046L248.341 183.02L250.246 186.485L241.278 191.416C241.027 190.961 240.869 190.461 240.812 189.945C240.755 189.429 240.801 188.906 240.945 188.408C241.09 187.909 241.332 187.444 241.657 187.038C241.981 186.633 242.383 186.296 242.838 186.046Z" fill="#2F2E41"/>
<path d="M215.674 181.417L210.661 181.031C210.38 181.01 210.116 180.89 209.915 180.694C209.714 180.497 209.589 180.235 209.563 179.955C208.848 172.503 205.714 134.739 214.192 123.112L214.215 123.079L214.253 123.065C214.329 123.037 221.89 120.341 226.228 125.282C226.364 125.439 226.457 125.629 226.497 125.833C226.538 126.037 226.524 126.248 226.458 126.445L226.293 126.941C226.245 127.082 226.233 127.232 226.256 127.379C226.279 127.525 226.336 127.664 226.424 127.784C227.628 129.412 231.68 135.68 233.273 148.005C233.283 148.084 233.303 148.161 233.333 148.234L245.09 177.117C245.15 177.265 245.18 177.423 245.178 177.582C245.177 177.741 245.143 177.899 245.079 178.045C245.016 178.191 244.924 178.323 244.809 178.433C244.693 178.542 244.558 178.628 244.409 178.685L240.709 180.095C240.44 180.196 240.143 180.197 239.873 180.098C239.603 179.999 239.377 179.806 239.237 179.554L222.264 148.76C222.196 148.638 222.092 148.54 221.965 148.48C221.838 148.421 221.696 148.402 221.559 148.429C221.421 148.455 221.295 148.524 221.199 148.625C221.103 148.727 221.042 148.857 221.024 148.996L216.951 180.379C216.914 180.666 216.773 180.931 216.555 181.122C216.337 181.314 216.057 181.42 215.767 181.42C215.736 181.42 215.705 181.419 215.674 181.417Z" fill="#2F2E41"/>
<path d="M200.909 103.832C200.942 103.976 200.963 104.121 200.973 104.268L212.383 110.851L215.157 109.254L218.113 113.125L213.478 116.429C213.104 116.696 212.653 116.834 212.193 116.823C211.733 116.811 211.29 116.651 210.929 116.367L199.162 107.084C198.631 107.281 198.053 107.311 197.505 107.171C196.956 107.031 196.463 106.727 196.091 106.3C195.72 105.873 195.487 105.342 195.424 104.78C195.361 104.217 195.47 103.649 195.738 103.15C196.006 102.651 196.42 102.246 196.924 101.987C197.428 101.729 197.998 101.631 198.56 101.705C199.121 101.779 199.646 102.022 200.066 102.402C200.486 102.782 200.78 103.281 200.909 103.832Z" fill="#FFB8B8"/>
<path d="M212.54 110.193C212.574 110.024 212.645 109.866 212.746 109.727C212.847 109.588 212.977 109.473 213.127 109.389L218.364 106.461C219.059 105.925 219.939 105.686 220.811 105.797C221.683 105.908 222.475 106.36 223.013 107.054C223.552 107.748 223.794 108.628 223.685 109.5C223.577 110.372 223.127 111.165 222.435 111.706L218.26 116.041C218.141 116.165 217.996 116.261 217.836 116.324C217.677 116.387 217.505 116.415 217.333 116.406C217.162 116.396 216.994 116.35 216.842 116.27C216.69 116.19 216.557 116.078 216.453 115.942L212.765 111.163C212.66 111.027 212.585 110.87 212.546 110.702C212.508 110.535 212.505 110.361 212.54 110.193Z" fill="#13C273"/>
<path d="M226.094 119.22C225.96 119.112 225.852 118.976 225.775 118.822C225.699 118.668 225.657 118.5 225.651 118.328L225.463 112.332C225.307 111.467 225.5 110.576 226 109.853C226.5 109.13 227.266 108.635 228.131 108.476C228.995 108.318 229.887 108.508 230.611 109.006C231.335 109.504 231.832 110.269 231.993 111.133L233.919 116.835C233.974 116.998 233.994 117.171 233.976 117.342C233.958 117.512 233.903 117.677 233.816 117.825C233.729 117.973 233.611 118.101 233.47 118.199C233.329 118.297 233.168 118.363 232.999 118.394L227.058 119.467C226.889 119.497 226.716 119.491 226.549 119.448C226.383 119.406 226.228 119.328 226.094 119.22Z" fill="#13C273"/>
<path d="M225.239 94.7536C223.563 95.9013 221.361 97.081 219.648 95.8588C219.113 95.4509 218.723 94.8804 218.539 94.2328C218.355 93.5852 218.385 92.8952 218.625 92.2663C219.446 89.9212 221.699 88.8888 223.853 88.0974C226.654 87.0687 229.704 86.2502 232.595 86.987C235.486 87.7238 238.042 90.5232 237.52 93.461C237.1 95.8235 234.872 97.7893 235.188 100.168C235.506 102.562 238.199 103.822 240.575 104.25C242.952 104.677 245.612 104.815 247.32 106.522C249.499 108.7 248.954 112.592 246.904 114.892C244.854 117.191 241.76 118.233 238.762 118.942C234.789 119.881 230.493 120.374 226.72 118.816C222.948 117.258 220.012 113.064 221.105 109.131C221.566 107.47 222.654 106.066 223.705 104.7C224.756 103.333 225.82 101.904 226.221 100.227C226.555 98.8295 226.308 97.2071 225.381 96.1589C225.213 95.9754 225.107 95.7433 225.078 95.4958C225.05 95.2482 225.101 94.9981 225.223 94.7813L225.239 94.7536Z" fill="#2F2E41"/>
</svg>
