<svg width="640" height="625" viewBox="0 0 640 625" fill="none" xmlns="http://www.w3.org/2000/svg">
<path d="M0 320C0 143.269 143.269 0 320 0H327.5C500.089 0 640 139.911 640 312.5V312.5C640 485.089 500.089 625 327.5 625H51.0204C22.8426 625 0 602.157 0 573.98V320Z" fill="url(#paint0_linear_201_49)"/>
<path fill-rule="evenodd" clip-rule="evenodd" d="M231.896 160H269.5C280.546 160 289.5 168.954 289.5 180C289.5 191.046 280.546 200 269.5 200H229.5V223H269.5C280.546 223 289.5 231.954 289.5 243C289.5 254.046 280.546 263 269.5 263H229.5V286H269.5C280.546 286 289.5 294.954 289.5 306C289.5 317.046 280.546 326 269.5 326H229.977C234.467 368.16 270.149 401 313.5 401C356.852 401 392.533 368.16 397.024 326H357.5C346.454 326 337.5 317.046 337.5 306C337.5 294.954 346.454 286 357.5 286H397.5V263H357.5C346.454 263 337.5 254.046 337.5 243C337.5 231.954 346.454 223 357.5 223H397.5V200H357.5C346.454 200 337.5 191.046 337.5 180C337.5 168.954 346.454 160 357.5 160H395.105C386.132 123.264 353 96 313.5 96C274 96 240.868 123.264 231.896 160Z" fill="white"/>
<path fill-rule="evenodd" clip-rule="evenodd" d="M200.996 309.691C200.826 302.79 195.093 297.333 188.192 297.504C181.29 297.674 175.833 303.407 176.004 310.309C177.088 354.228 194.647 387.973 220.94 410.6C243.507 430.02 272.019 440.848 301 443.405V514.5H261.5C251.835 514.5 244 522.335 244 532C244 541.665 251.835 549.5 261.5 549.5L365.5 549.5C375.165 549.5 383 541.665 383 532C383 522.335 375.165 514.5 365.5 514.5H326V443.568C355.622 441.338 384.73 430.454 407.41 410.512C433.262 387.783 450 353.929 450 310C450 303.096 444.404 297.5 437.5 297.5C430.597 297.5 425 303.096 425 310C425 347.071 411.113 373.967 390.903 391.738C370.452 409.718 342.761 419 314.5 419C286.243 419 258.242 409.718 237.247 391.65C216.478 373.777 201.912 346.772 200.996 309.691Z" fill="white"/>
<defs>
<linearGradient id="paint0_linear_201_49" x1="-1.88062e-06" y1="312" x2="640" y2="312" gradientUnits="userSpaceOnUse">
<stop stop-color="#6BB6ED"/>
<stop offset="0.495087" stop-color="#7B6DEE"/>
<stop offset="1" stop-color="#8D1BF0"/>
</linearGradient>
</defs>
</svg>
