<svg width="280" height="240" viewBox="0 0 280 240" fill="none" xmlns="http://www.w3.org/2000/svg">
<path d="M249.726 90.3488H249.436C246.276 90.3453 243.246 89.0884 241.012 86.854C238.778 84.6196 237.521 81.5901 237.517 78.4302V74.3605H202.052V73.7791H238.099V78.4302C238.102 81.3857 239.258 84.2232 241.321 86.3396C243.384 88.4561 246.191 89.6845 249.145 89.7638V73.7791H257.575C258.731 73.7778 259.84 73.3179 260.657 72.5005C261.475 71.683 261.934 70.5747 261.936 69.4186V24.9419C261.934 23.7858 261.475 22.6775 260.657 21.86C259.84 21.0425 258.731 20.5827 257.575 20.5814H146.529C145.373 20.5827 144.264 21.0425 143.447 21.86C142.629 22.6775 142.17 23.7858 142.168 24.9419V57.2093H141.587V24.9419C141.588 23.6317 142.11 22.3755 143.036 21.4491C143.962 20.5226 145.219 20.0015 146.529 20H257.575C258.885 20.0015 260.142 20.5226 261.068 21.4491C261.995 22.3755 262.516 23.6317 262.517 24.9419V69.4186C262.516 70.7288 261.995 71.9849 261.068 72.9114C260.142 73.8379 258.885 74.359 257.575 74.3605H249.726V90.3488Z" fill="#CCCCCC"/>
<path d="M239.256 34.6831C239.219 33.7452 238.821 32.8579 238.145 32.2071C237.468 31.5562 236.566 31.1924 235.628 31.1919H168.476C167.513 31.1919 166.589 31.5747 165.907 32.2562C165.226 32.9376 164.843 33.8619 164.843 34.8256C164.843 35.7893 165.226 36.7136 165.907 37.395C166.589 38.0765 167.513 38.4593 168.476 38.4593H235.628C236.591 38.458 237.514 38.0747 238.196 37.3935C238.877 36.7124 239.26 35.7889 239.261 34.8256C239.262 34.778 239.26 34.7305 239.256 34.6831Z" fill="#CCCCCC"/>
<path d="M239.256 46.8924C239.219 45.9545 238.821 45.0672 238.145 44.4164C237.468 43.7655 236.566 43.4017 235.628 43.4012H168.476C167.513 43.4012 166.589 43.784 165.907 44.4654C165.226 45.1469 164.843 46.0712 164.843 47.0349C164.843 47.9986 165.226 48.9228 165.907 49.6043C166.589 50.2858 167.513 50.6686 168.476 50.6686H235.628C236.591 50.6673 237.514 50.284 238.196 49.6028C238.877 48.9217 239.26 47.9982 239.261 47.0349C239.262 46.9873 239.26 46.9397 239.256 46.8924Z" fill="#CCCCCC"/>
<path d="M239.256 59.1018C239.219 58.1639 238.821 57.2765 238.145 56.6257C237.468 55.9748 236.566 55.611 235.628 55.6105H168.477C167.944 55.6105 167.418 55.7277 166.936 55.9538C166.453 56.1798 166.027 56.5092 165.686 56.9186C165.536 57.0998 165.404 57.2944 165.291 57.5H197.401C198.557 57.5014 199.665 57.9613 200.483 58.7787C201.3 59.5962 201.76 60.7044 201.761 61.8605V62.8779H235.628C236.591 62.8766 237.515 62.4933 238.196 61.8122C238.877 61.131 239.26 60.2075 239.261 59.2442C239.262 59.1966 239.26 59.1491 239.256 59.1018Z" fill="#CCCCCC"/>
<path d="M10.1272 219.042C10.2853 219.172 10.4435 219.296 10.6054 219.419H50.5485C50.846 219.296 51.1422 219.171 51.4372 219.042C55.6539 217.207 59.5788 214.763 63.0864 211.789C65.4156 209.816 67.5583 207.779 69.1116 205.87C71.2787 203.205 73.2746 200.302 74.2029 196.994C75.1292 193.686 74.8525 189.893 72.7832 187.15C72.1424 186.306 71.3547 185.585 70.4578 185.021C70.3091 184.926 70.1585 184.836 70.0041 184.751C67.4297 183.366 64.4266 183.005 61.5971 183.74C57.596 184.774 54.2709 187.66 51.8985 191.046C49.5261 194.429 47.9859 198.316 46.4684 202.158C44.9282 195.299 40.2643 189.155 33.9642 186.032C27.666 182.908 19.8408 182.946 13.6764 186.329C11.7368 187.4 9.98469 188.78 8.48906 190.415C8.3404 190.575 8.19532 190.739 8.05227 190.905C5.04539 194.386 3.16437 198.845 3.01001 203.443C2.94061 206.411 3.54496 209.358 4.77765 212.059C6.01035 214.761 7.83933 217.149 10.1272 219.042Z" fill="#F2F2F2"/>
<path d="M48.9519 219.419H49.5168C49.5242 219.292 49.5337 219.168 49.545 219.042C49.7424 216.579 50.1557 214.138 50.7802 211.748C52.2128 206.29 54.6598 201.151 57.9934 196.598C61.3175 192.031 65.5081 188.163 70.3262 185.215C70.3614 185.194 70.3916 185.166 70.4144 185.133C70.4373 185.099 70.4521 185.061 70.4579 185.021C70.4671 184.968 70.4612 184.914 70.4408 184.865C70.4205 184.815 70.3865 184.773 70.3429 184.742C70.2993 184.711 70.2478 184.693 70.1945 184.691C70.1412 184.688 70.0883 184.701 70.0418 184.727C70.0288 184.734 70.0163 184.743 70.0042 184.751C67.2745 186.415 64.7405 188.381 62.4501 190.611C58.3531 194.607 55.0496 199.343 52.7139 204.568C50.6532 209.145 49.391 214.04 48.982 219.042C48.9707 219.168 48.9613 219.294 48.9519 219.419Z" fill="white"/>
<path d="M8.05229 190.905C8.05638 190.907 8.06085 190.908 8.06544 190.908C8.47778 190.984 8.89204 191.063 9.30254 191.147C12.672 191.839 15.9703 192.841 19.1556 194.139C22.3325 195.436 25.3883 197.011 28.2875 198.846C31.1903 200.681 33.9276 202.765 36.4684 205.075C39.0093 207.382 41.34 209.91 43.4332 212.629C44.9976 214.667 46.42 216.809 47.6903 219.042C47.7618 219.166 47.8315 219.292 47.9012 219.419H48.547C48.4792 219.292 48.4095 219.166 48.338 219.042C46.8012 216.306 45.039 213.703 43.0698 211.26C40.8921 208.556 38.4781 206.052 35.8565 203.776C33.2516 201.513 30.4558 199.479 27.5004 197.698C24.5327 195.909 21.4126 194.387 18.1764 193.149C15.036 191.948 11.7938 191.033 8.48908 190.415C8.39687 190.398 8.3065 190.381 8.21419 190.364C7.86217 190.3 7.71148 190.831 8.05229 190.905Z" fill="white"/>
<path d="M19.2844 210.56C23.2178 210.019 27.2123 210.109 31.1173 210.826C35.0109 211.538 38.7698 212.852 42.2587 214.722C44.2194 215.775 46.0804 217.005 47.8186 218.395C48.1026 218.622 47.7006 219.019 47.4192 218.795C44.3691 216.368 40.95 214.446 37.2919 213.102C33.6626 211.759 29.848 210.985 25.9826 210.807C23.7954 210.707 21.6037 210.806 19.4346 211.104C19.3625 211.122 19.2865 211.111 19.222 211.074C19.1575 211.038 19.1093 210.978 19.0872 210.907C19.0677 210.835 19.0775 210.758 19.1144 210.693C19.1514 210.628 19.2125 210.58 19.2844 210.56Z" fill="white"/>
<path d="M197.11 57.5H86.0637C84.7536 57.5019 83.4977 58.0231 82.5713 58.9495C81.6449 59.8759 81.1237 61.1318 81.1218 62.4419V106.919C81.1237 108.229 81.6449 109.485 82.5713 110.411C83.4977 111.337 84.7536 111.859 86.0637 111.86H93.9125V127.849H94.2032C97.3632 127.846 100.393 126.589 102.627 124.354C104.862 122.12 106.118 119.09 106.122 115.93V111.86H197.11C198.42 111.859 199.676 111.337 200.603 110.411C201.529 109.485 202.05 108.229 202.052 106.919V62.4419C202.05 61.1318 201.529 59.8759 200.603 58.9495C199.676 58.0231 198.42 57.5019 197.11 57.5ZM201.471 106.919C201.469 108.075 201.009 109.183 200.192 110C199.375 110.818 198.266 111.278 197.11 111.279H105.54V115.93C105.536 118.886 104.38 121.723 102.318 123.839C100.255 125.956 97.4482 127.185 94.4939 127.265V111.279H86.0637C84.9077 111.278 83.7994 110.818 82.9819 110C82.1645 109.183 81.7046 108.075 81.7032 106.919V62.4419C81.7046 61.2858 82.1645 60.1775 82.9819 59.3601C83.7994 58.5427 84.9077 58.0828 86.0637 58.0814H197.11C198.266 58.0828 199.375 58.5427 200.192 59.3601C201.009 60.1775 201.469 61.2858 201.471 62.4419V106.919Z" fill="#3F3D56"/>
<path d="M175.163 68.6919H108.011C107.073 68.6924 106.171 69.0562 105.495 69.7071C104.818 70.3579 104.42 71.2452 104.383 72.1831C104.379 72.2305 104.377 72.278 104.378 72.3256C104.379 73.2889 104.762 74.2124 105.443 74.8935C106.125 75.5747 107.048 75.958 108.011 75.9593H175.163C176.126 75.9593 177.051 75.5765 177.732 74.895C178.413 74.2136 178.796 73.2893 178.796 72.3256C178.796 71.3619 178.413 70.4376 177.732 69.7562C177.051 69.0747 176.126 68.6919 175.163 68.6919Z" fill="#8E17F0"/>
<path d="M175.163 80.9012H108.011C107.073 80.9017 106.171 81.2655 105.495 81.9164C104.818 82.5672 104.42 83.4545 104.383 84.3924C104.379 84.4398 104.377 84.4873 104.378 84.5349C104.379 85.4982 104.762 86.4216 105.443 87.1028C106.125 87.784 107.048 88.1672 108.011 88.1686H175.163C176.126 88.1686 177.051 87.7858 177.732 87.1043C178.413 86.4228 178.796 85.4986 178.796 84.5349C178.796 83.5712 178.413 82.6469 177.732 81.9654C177.051 81.284 176.126 80.9012 175.163 80.9012Z" fill="#8E17F0"/>
<path d="M175.163 93.1105H108.011C107.073 93.111 106.171 93.4748 105.495 94.1257C104.818 94.7765 104.42 95.6639 104.383 96.6018C104.379 96.6491 104.377 96.6966 104.378 96.7442C104.379 97.7075 104.762 98.631 105.443 99.3121C106.125 99.9933 107.048 100.377 108.011 100.378H175.163C176.126 100.378 177.051 99.9951 177.732 99.3136C178.413 98.6322 178.796 97.7079 178.796 96.7442C178.796 95.7805 178.413 94.8562 177.732 94.1748C177.051 93.4933 176.126 93.1105 175.163 93.1105Z" fill="#8E17F0"/>
<path d="M68.3274 157.419C68.1965 157.419 68.0657 157.41 67.9359 157.394C67.4886 157.339 67.058 157.19 66.6722 156.957C66.2864 156.725 65.9541 156.413 65.6973 156.043C65.4404 155.672 65.2646 155.252 65.1815 154.809C65.0984 154.366 65.1098 153.911 65.215 153.473C65.2399 153.371 65.27 153.27 65.3053 153.172L55.6062 140.755C55.1792 140.204 54.9413 139.53 54.9276 138.833C54.914 138.136 55.1254 137.453 55.5306 136.886L58.9279 132.168L63.3685 135.593L61.5845 138.658L68.6493 151.041C68.7913 151.054 68.9323 151.077 69.0711 151.11C69.8323 151.293 70.4999 151.749 70.9476 152.391C71.3953 153.033 71.5919 153.817 71.5003 154.595C71.4086 155.372 71.035 156.089 70.4503 156.609C69.8655 157.13 69.1102 157.418 68.3274 157.419Z" fill="#A0616A"/>
<path d="M85.1124 216.255L88.6763 216.255L90.3717 202.508L85.1118 202.509L85.1124 216.255Z" fill="#A0616A"/>
<path d="M95.5496 219.564L84.3488 219.564L84.3486 215.237L91.2218 215.237C91.7901 215.237 92.3528 215.348 92.8779 215.566C93.4029 215.783 93.88 216.102 94.2819 216.504C94.6838 216.906 95.0026 217.383 95.2201 217.908C95.4376 218.433 95.5495 218.996 95.5496 219.564Z" fill="#2F2E41"/>
<path d="M55.752 216.255L59.316 216.255L61.0114 202.508L55.7515 202.509L55.752 216.255Z" fill="#A0616A"/>
<path d="M66.1892 219.564L54.9884 219.564L54.9882 215.237L61.8614 215.237C62.4297 215.237 62.9925 215.348 63.5175 215.566C64.0426 215.783 64.5197 216.102 64.9216 216.504C65.3234 216.906 65.6422 217.383 65.8597 217.908C66.0772 218.433 66.1892 218.996 66.1892 219.564Z" fill="#2F2E41"/>
<path d="M57.9395 132.837L65.9408 135.877L67.8943 130.451C68.1537 129.731 68.15 128.942 67.8839 128.223C67.6179 127.505 67.1065 126.904 66.4402 126.527C65.7662 126.145 64.9779 126.017 64.2175 126.165C63.4572 126.313 62.775 126.729 62.2942 127.336L57.9395 132.837Z" fill="#E8D1FC"/>
<path d="M84.4788 205.159C84.1594 205.158 83.8491 205.052 83.5968 204.855C83.3446 204.659 83.1648 204.385 83.0857 204.075C79.0957 188.81 75.0444 181.159 70.7001 172.312C70.5915 172.091 70.4153 171.911 70.1972 171.798C69.9791 171.684 69.7305 171.643 69.4874 171.68C69.2444 171.718 69.0197 171.832 68.846 172.006C68.6722 172.18 68.5585 172.405 68.5214 172.648L63.1365 203.767C63.0828 204.114 62.9047 204.43 62.6354 204.655C62.3661 204.881 62.024 205.001 61.6728 204.993L53.6782 204.798C53.4843 204.794 53.2931 204.751 53.1163 204.671C52.9396 204.591 52.7809 204.476 52.6499 204.333C52.5114 204.196 52.4056 204.029 52.34 203.846C52.2744 203.662 52.2508 203.466 52.2709 203.273C55.8918 179.393 58.7427 157.778 64.2252 151.184C64.3772 151.04 64.5514 150.922 64.7412 150.833L64.5748 150.808C64.5273 150.8 64.4007 150.781 64.3991 150.654L64.3975 150.531L64.5226 150.507C64.7223 150.5 64.9215 150.53 65.1102 150.595L77.6232 152.521C77.9698 152.574 78.2852 152.752 78.5105 153.021C78.7359 153.289 78.8559 153.631 78.8481 153.982C79.5284 157.164 80.5709 161.967 80.6641 162.204C87.3402 174.896 89.9308 184.891 92.6235 201.958C92.6792 202.319 92.596 202.689 92.3904 202.992C92.1848 203.295 91.8722 203.509 91.5153 203.591L84.8047 205.122C84.6978 205.146 84.5885 205.158 84.4788 205.159Z" fill="#2F2E41"/>
<path d="M77.4569 154.602C77.3446 154.602 77.2327 154.589 77.1235 154.563L64.8042 151.632C64.6153 151.588 64.4376 151.506 64.2818 151.391C64.126 151.275 63.9956 151.129 63.8984 150.961C63.7982 150.788 63.7341 150.595 63.71 150.397C63.6858 150.198 63.7021 149.996 63.7578 149.803C65.0862 145.198 63.3443 139.488 61.264 134.005C60.9994 132.401 61.2585 130.755 62.0031 129.311C62.7477 127.866 63.9379 126.7 65.3975 125.985L65.431 125.969L71.8989 126.295C72.9609 126.574 73.946 127.089 74.7801 127.803C75.6143 128.517 76.2757 129.411 76.7148 130.417C79.2077 136.252 79.9216 143.739 78.8967 153.305C78.8591 153.661 78.6912 153.99 78.4254 154.23C78.1596 154.469 77.8146 154.602 77.4569 154.602Z" fill="#E8D1FC"/>
<path d="M79.1142 141.284C78.4566 141.285 77.815 141.081 77.2789 140.701L72.5073 137.3L75.9117 132.843L78.9849 134.612L91.3341 127.488C91.3465 127.346 91.3687 127.205 91.4007 127.066C91.5454 126.45 91.8695 125.891 92.3319 125.46C92.7942 125.028 93.3742 124.743 93.9984 124.642C94.6225 124.54 95.2629 124.625 95.8385 124.887C96.4141 125.149 96.899 125.576 97.232 126.114C97.565 126.651 97.7311 127.276 97.7093 127.908C97.6874 128.54 97.4786 129.151 97.1093 129.665C96.74 130.178 96.2268 130.57 95.6345 130.792C95.0422 131.014 94.3974 131.055 93.7818 130.91C93.6799 130.886 93.5794 130.856 93.4806 130.821L81.0752 140.608C80.5161 141.047 79.8252 141.285 79.1142 141.284Z" fill="#A0616A"/>
<path d="M70.9937 138.688L78.0718 133.874L74.7454 129.163C74.3037 128.538 73.6551 128.088 72.9141 127.895C72.1732 127.701 71.3877 127.775 70.6964 128.105C69.9971 128.438 69.44 129.011 69.1258 129.719C68.8115 130.427 68.7609 131.224 68.9829 131.966L70.9937 138.688Z" fill="#E8D1FC"/>
<path d="M67.5895 123.553C71.5328 123.553 74.7294 120.356 74.7294 116.413C74.7294 112.47 71.5328 109.273 67.5895 109.273C63.6463 109.273 60.4497 112.47 60.4497 116.413C60.4497 120.356 63.6463 123.553 67.5895 123.553Z" fill="#A0616A"/>
<path d="M68.2437 123.718C67.1721 123.713 66.3454 122.585 66.3934 121.515C66.4414 120.444 67.1605 119.502 68.0267 118.871C68.893 118.241 69.9089 117.856 70.875 117.392C71.8411 116.929 72.7987 116.35 73.3951 115.46C73.7555 114.877 73.9705 114.216 74.0223 113.533C74.0741 112.85 73.961 112.165 73.6926 111.534C73.1375 110.273 72.1845 109.229 70.9795 108.562C69.1894 107.514 67.0704 107.179 65.0444 107.624C63.0184 108.068 61.2342 109.259 60.0472 110.96L58.8239 114.291C57.5774 115.79 57.3797 118.016 58.1459 119.809C58.9122 121.601 60.5437 122.95 62.3846 123.591C64.2525 124.191 66.252 124.251 68.1524 123.764" fill="#2F2E41"/>
<path d="M60.5291 113.028C60.04 112.274 59.3728 111.652 58.5864 111.216C57.8 110.781 56.9186 110.545 56.0198 110.531C55.121 110.516 54.2324 110.723 53.4324 111.133C52.6325 111.543 51.9457 112.144 51.4326 112.882C50.5737 114.118 50.2618 115.641 49.6712 117.025C48.6016 119.503 46.6563 121.501 44.207 122.636C46.3516 123.013 48.4881 121.922 50.2027 120.58C51.9172 119.238 53.4251 117.599 55.3453 116.572C56.8558 115.768 58.5528 115.378 60.2632 115.443" fill="#2F2E41"/>
<path d="M120.626 220H9.87004C9.79295 220 9.71901 219.969 9.66449 219.915C9.60997 219.86 9.57935 219.786 9.57935 219.709C9.57935 219.632 9.60997 219.558 9.66449 219.504C9.71901 219.449 9.79295 219.419 9.87004 219.419H120.626C120.703 219.419 120.777 219.449 120.831 219.504C120.886 219.558 120.917 219.632 120.917 219.709C120.917 219.786 120.886 219.86 120.831 219.915C120.777 219.969 120.703 220 120.626 220Z" fill="#3F3D56"/>
<path d="M259.61 126.395C269.082 126.395 276.761 118.717 276.761 109.244C276.761 99.7719 269.082 92.093 259.61 92.093C250.138 92.093 242.459 99.7719 242.459 109.244C242.459 118.717 250.138 126.395 259.61 126.395Z" fill="#E6E6E6"/>
<path d="M261.246 121.469C260.547 121.449 259.678 121.425 259.009 120.936C258.809 120.784 258.645 120.591 258.529 120.369C258.412 120.148 258.345 119.903 258.333 119.653C258.32 119.475 258.35 119.297 258.418 119.132C258.486 118.968 258.591 118.821 258.726 118.704C258.925 118.555 259.159 118.458 259.405 118.423C259.652 118.387 259.903 118.414 260.136 118.501L259.566 114.333L259.985 114.276L260.655 119.175L260.306 119.015C259.9 118.829 259.344 118.734 258.998 119.026C258.913 119.103 258.847 119.198 258.805 119.304C258.763 119.41 258.746 119.524 258.755 119.638C258.765 119.824 258.815 120.006 258.902 120.171C258.989 120.336 259.11 120.481 259.258 120.595C259.779 120.975 260.472 121.024 261.258 121.046L261.246 121.469Z" fill="#3F3D56"/>
<path d="M257.496 114.693H255.22V115.115H257.496V114.693Z" fill="#3F3D56"/>
<path d="M264.679 114.693H262.403V115.115H264.679V114.693Z" fill="#3F3D56"/>
<path d="M251.267 108.858C249.434 108.649 248.015 106.893 247.859 105.111C247.673 102.992 248.908 100.979 250.601 99.7896C252.372 98.5458 254.578 98.0264 256.713 97.9121C260.877 97.7048 264.97 99.0538 268.195 101.697C269.795 103.025 271.289 104.718 271.855 106.762C272.346 108.537 271.946 110.548 270.519 111.791C270.165 112.096 269.753 112.324 269.307 112.461C268.861 112.599 268.392 112.642 267.928 112.589C266.821 112.474 265.798 111.891 264.914 111.248C263.192 109.996 261.779 108.253 259.682 107.599C258.145 107.12 256.15 107.542 255.21 108.932C254.997 109.25 254.859 109.613 254.806 109.992C254.787 110.073 254.799 110.159 254.84 110.231C254.881 110.303 254.948 110.357 255.027 110.382C255.108 110.404 255.195 110.393 255.268 110.352C255.341 110.31 255.394 110.242 255.417 110.161C255.664 108.41 257.817 107.756 259.328 108.156C261.531 108.739 263.01 110.705 264.818 111.954C265.754 112.652 266.856 113.092 268.015 113.23C269.02 113.309 270.017 113.003 270.804 112.374C272.349 111.154 272.939 109.057 272.598 107.168C272.202 104.982 270.731 103.108 269.116 101.657C265.842 98.7462 261.592 97.1761 257.212 97.2592C254.978 97.3106 252.647 97.7717 250.723 98.9524C248.856 100.098 247.413 102.014 247.225 104.241C247.059 106.201 248.111 108.252 249.916 109.11C250.342 109.312 250.798 109.441 251.267 109.492C251.671 109.538 251.668 108.904 251.267 108.858Z" fill="#3F3D56"/>
</svg>
