<svg width="280" height="240" viewBox="0 0 280 240" fill="none" xmlns="http://www.w3.org/2000/svg">
<g clip-path="url(#clip0_1203_7448)">
<path d="M257.42 128.116C264.353 128.116 269.973 122.496 269.973 115.563C269.973 108.63 264.353 103.01 257.42 103.01C250.488 103.01 244.867 108.63 244.867 115.563C244.867 122.496 250.488 128.116 257.42 128.116Z" fill="#FEF4E8"/>
<path d="M257.42 118.867C259.245 118.867 260.724 117.388 260.724 115.563C260.724 113.739 259.245 112.26 257.42 112.26C255.596 112.26 254.117 113.739 254.117 115.563C254.117 117.388 255.596 118.867 257.42 118.867Z" fill="#F08E17"/>
<path d="M256.817 115.634C258.208 116.769 258.632 118.558 258.373 120.286C258.055 122.181 257.072 123.9 255.601 125.135C253.946 126.606 251.928 127.6 249.98 128.618C248.191 129.531 246.471 130.575 244.835 131.741C238.572 136.293 233.84 142.775 231.132 150.008C228.428 157.23 227.703 165.426 229.757 172.91C230.773 176.613 232.83 180.608 236.66 182.001C239.714 183.112 243.883 182.396 245.438 179.249C247.108 175.869 244.778 172.068 241.776 170.39C237.885 168.215 233.238 169.804 229.738 172.007C225.885 174.431 222.788 177.91 218.766 180.083C216.955 181.092 214.941 181.679 212.872 181.802C210.971 181.877 209.075 181.584 207.286 180.939C203.574 179.587 200.379 177.107 198.148 173.846C195.593 170.133 194.45 165.58 194.241 161.12C193.774 151.142 197.716 141.807 200.879 132.554C202.578 127.735 203.852 122.776 204.684 117.735C205.475 112.668 205.757 107.534 205.525 102.411C205.315 97.8809 204.869 93.1437 202.869 89.0063C201.111 85.3682 197.898 82.3906 193.836 81.6399C192.005 81.2805 190.107 81.4985 188.405 82.2637C187.826 82.528 188.329 83.3824 188.905 83.1194C192.5 81.4794 196.749 83.0751 199.405 85.7231C202.505 88.8152 203.644 93.3815 204.15 97.5949C205.286 107.58 204.39 117.692 201.517 127.323C198.76 136.689 194.423 145.664 193.422 155.476C192.966 159.954 193.2 164.583 194.631 168.876C195.859 172.701 198.162 176.091 201.264 178.643C204.185 181.004 207.778 182.613 211.561 182.792C215.807 182.993 219.531 181.1 222.825 178.582C226.354 175.885 229.6 172.557 233.874 171.045C235.823 170.356 238.042 170.034 240.043 170.697C241.759 171.284 243.215 172.454 244.156 174.005C245.025 175.45 245.346 177.256 244.553 178.808C243.807 180.268 242.352 181.112 240.777 181.401C239.109 181.696 237.39 181.404 235.913 180.574C234.187 179.589 232.924 177.934 232.04 176.187C230.276 172.702 229.683 168.554 229.593 164.686C229.514 160.907 229.998 157.138 231.029 153.503C233.081 146.148 237.222 139.547 242.951 134.499C244.394 133.242 245.938 132.105 247.567 131.1C249.344 130.005 251.241 129.129 253.053 128.096C254.836 127.079 256.593 125.864 257.82 124.19C258.867 122.756 259.432 121.027 259.435 119.251C259.453 118.435 259.291 117.624 258.96 116.877C258.628 116.131 258.136 115.467 257.518 114.933C257.027 114.533 256.322 115.23 256.817 115.634Z" fill="#CCCCCC"/>
<path d="M139.629 173.372C144.018 176.209 149.095 177.801 154.319 177.977C154.226 178.198 154.121 178.414 154.005 178.624C153.397 179.747 152.538 180.713 151.494 181.449C150.259 182.318 148.809 182.832 147.301 182.933C145.794 183.035 144.288 182.72 142.947 182.024C141.607 181.328 140.483 180.278 139.698 178.987C138.914 177.696 138.499 176.214 138.499 174.703V173.372H139.629Z" fill="#3F3D56"/>
<path d="M170.439 173.762V174.703C170.44 176.536 169.83 178.317 168.706 179.764C167.581 181.212 166.007 182.243 164.231 182.696C162.454 183.149 160.578 182.997 158.898 182.264C157.218 181.532 155.83 180.26 154.953 178.651C154.832 178.435 154.723 178.214 154.626 177.987C154.867 177.993 155.105 177.997 155.346 177.997C160.671 178.003 165.895 176.537 170.439 173.762Z" fill="#3F3D56"/>
<path d="M181.552 74.2049C181.304 74.1686 181.053 74.1454 180.802 74.1289C183.655 80.7036 183.852 88.1272 181.354 94.8443C181.605 94.8146 181.853 94.775 182.1 94.7287C184.519 94.26 186.694 92.9479 188.236 91.0262C189.779 89.1045 190.589 86.6977 190.523 84.2344C190.458 81.7711 189.52 79.4111 187.877 77.5744C186.234 75.7378 183.993 74.5438 181.552 74.2049Z" fill="#3F3D56"/>
<path d="M129.89 74.1289C129.639 74.1454 129.388 74.1685 129.141 74.2049C126.7 74.5438 124.458 75.7378 122.816 77.5744C121.173 79.4111 120.235 81.7711 120.169 84.2344C120.103 86.6977 120.914 89.1045 122.456 91.0262C123.999 92.9479 126.173 94.26 128.592 94.7287C128.84 94.775 129.088 94.8146 129.339 94.8443C126.84 88.1272 127.038 80.7036 129.89 74.1289Z" fill="#3F3D56"/>
<path d="M181.552 74.2051C178.831 67.704 173.79 62.4466 167.409 59.4543C161.028 56.462 153.763 55.9484 147.024 58.0133C140.286 60.0782 134.555 64.5742 130.947 70.6277C127.338 76.6813 126.108 83.8603 127.496 90.7699C128.884 97.6795 132.791 103.826 138.458 108.017C144.125 112.207 151.147 114.141 158.16 113.443C165.173 112.745 171.676 109.465 176.407 104.241C181.137 99.0162 183.756 92.2199 183.755 85.1723C183.754 81.4067 183.005 77.6789 181.552 74.2051ZM181.354 94.8445C178.937 101.34 174.177 106.696 168.01 109.858C161.843 113.02 154.715 113.759 148.03 111.93C141.345 110.101 135.587 105.836 131.889 99.9738C128.192 94.1122 126.822 87.0787 128.049 80.2576C129.277 73.4366 133.013 67.3222 138.523 63.1177C144.033 58.9133 150.917 56.9234 157.82 57.5398C164.723 58.1561 171.145 61.334 175.823 66.448C180.501 71.562 183.095 78.2416 183.095 85.1723C183.094 88.4742 182.504 91.7495 181.354 94.8445Z" fill="#3F3D56"/>
<path d="M169.881 78.7305H140.811C139.278 78.7305 137.808 79.3395 136.724 80.4237C135.64 81.5078 135.031 82.9782 135.031 84.5114C135.031 86.0446 135.64 87.5149 136.724 88.5991C137.808 89.6832 139.278 90.2923 140.811 90.2923H169.881C171.414 90.2923 172.885 89.6832 173.969 88.5991C175.053 87.5149 175.662 86.0446 175.662 84.5114C175.662 82.9782 175.053 81.5078 173.969 80.4237C172.885 79.3395 171.414 78.7305 169.881 78.7305Z" fill="#3F3D56"/>
<path d="M155.346 119.197C147.58 119.2 140.124 122.243 134.572 127.673C129.02 133.104 125.813 140.491 125.638 148.255C125.463 156.019 128.333 163.544 133.634 169.219C138.935 174.895 146.247 178.27 154.005 178.624C154.319 178.641 154.636 178.651 154.953 178.651C155.085 178.657 155.214 178.657 155.346 178.657C163.231 178.657 170.793 175.525 176.369 169.95C181.944 164.374 185.077 156.812 185.077 148.927C185.077 141.042 181.944 133.48 176.369 127.905C170.793 122.329 163.231 119.197 155.346 119.197ZM170.439 173.762C165.895 176.537 160.671 178.003 155.346 177.997C155.105 177.997 154.867 177.993 154.626 177.987C154.524 177.987 154.421 177.984 154.319 177.977C147.338 177.734 140.678 174.988 135.556 170.239C130.433 165.491 127.191 159.058 126.42 152.116C125.65 145.173 127.404 138.186 131.361 132.43C135.318 126.674 141.214 122.534 147.971 120.767C154.729 119 161.897 119.724 168.165 122.807C174.433 125.889 179.382 131.124 182.109 137.554C184.835 143.985 185.156 151.182 183.014 157.83C180.871 164.478 176.408 170.133 170.439 173.762Z" fill="#3F3D56"/>
<path d="M176.213 141.604H163.219C162.314 141.604 161.446 141.245 160.805 140.605C160.165 139.964 159.806 139.096 159.806 138.191C159.806 137.286 160.165 136.417 160.805 135.777C161.446 135.137 162.314 134.777 163.219 134.777H176.213C177.118 134.777 177.986 135.137 178.626 135.777C179.266 136.417 179.626 137.286 179.626 138.191C179.626 139.096 179.266 139.964 178.626 140.605C177.986 141.245 177.118 141.604 176.213 141.604Z" fill="#3F3D56"/>
<path d="M164.085 139.923C165.042 139.923 165.818 139.148 165.818 138.191C165.818 137.234 165.042 136.458 164.085 136.458C163.129 136.458 162.353 137.234 162.353 138.191C162.353 139.148 163.129 139.923 164.085 139.923Z" fill="#F2F2F2"/>
<path d="M169.716 139.923C170.673 139.923 171.448 139.148 171.448 138.191C171.448 137.234 170.673 136.458 169.716 136.458C168.759 136.458 167.983 137.234 167.983 138.191C167.983 139.148 168.759 139.923 169.716 139.923Z" fill="#F2F2F2"/>
<path d="M175.346 139.923C176.303 139.923 177.079 139.148 177.079 138.191C177.079 137.234 176.303 136.458 175.346 136.458C174.39 136.458 173.614 137.234 173.614 138.191C173.614 139.148 174.39 139.923 175.346 139.923Z" fill="#F08E17"/>
<path d="M54.3818 182.089C57.3524 179.578 59.1568 175.613 58.6836 171.753C58.2104 167.893 55.2796 164.344 51.4778 163.524C47.6761 162.705 43.3424 164.974 42.1877 168.687C41.5522 161.528 40.8199 154.068 37.0133 147.97C33.5665 142.449 27.5965 138.499 21.1264 137.792C14.6563 137.085 7.8441 139.755 3.80893 144.862C-0.22623 149.968 -1.21423 157.393 1.6119 163.255C3.69381 167.575 7.52941 170.789 11.5482 173.404C24.3694 181.747 40.2741 184.565 55.4077 182.338L54.3818 182.089Z" fill="#FEF4E8"/>
<path d="M10.2071 139.903C15.5457 144.251 20.4434 149.115 24.8292 154.423C29.2157 159.725 33.0775 165.441 36.3604 171.489C38.1954 174.881 39.8438 178.372 41.2983 181.944C41.5949 182.671 40.4148 182.987 40.1216 182.269C37.5453 175.971 34.358 169.94 30.6053 164.264C26.8709 158.608 22.5966 153.327 17.8425 148.497C15.1535 145.766 12.3165 143.185 9.34418 140.766C8.73494 140.27 9.60288 139.411 10.2071 139.903Z" fill="white"/>
<path d="M53.3747 77.8022C59.0304 77.8022 63.6152 73.2174 63.6152 67.5617C63.6152 61.9061 59.0304 57.3213 53.3747 57.3213C47.7191 57.3213 43.1343 61.9061 43.1343 67.5617C43.1343 73.2174 47.7191 77.8022 53.3747 77.8022Z" fill="#2F2E41"/>
<path d="M91.5673 105.059C91.371 105.354 91.1318 105.618 90.8575 105.843C90.4624 106.168 90.003 106.407 89.5092 106.543C89.0155 106.678 88.4987 106.708 87.9926 106.63C87.4865 106.553 87.0025 106.369 86.5725 106.091C86.1424 105.813 85.776 105.447 85.4971 105.017C85.4326 104.917 85.3733 104.814 85.3197 104.708L69.1828 103.151C67.9092 103.023 66.7108 102.488 65.7654 101.625C64.82 100.762 64.178 99.6177 63.9347 98.361L63.0188 93.5325L69.3165 92.5527L70.4466 96.4205L86.1798 100.285C86.3017 100.178 86.4309 100.08 86.5665 99.9911C87.2683 99.5357 88.1058 99.3363 88.9375 99.4266C89.7693 99.517 90.5444 99.8915 91.1321 100.487C91.7197 101.083 92.084 101.863 92.1633 102.695C92.2425 103.528 92.032 104.363 91.5673 105.059Z" fill="#FFB8B8"/>
<path d="M70.8335 95.8365L63.7986 97.7368C63.418 97.8392 63.0124 97.7864 62.6707 97.59C62.3289 97.3937 62.0791 97.0698 61.9759 96.6894L59.5119 87.5682C59.2479 86.5912 59.355 85.551 59.8126 84.6483C60.2701 83.7456 61.0457 83.0443 61.9898 82.6795C62.9338 82.3148 63.9795 82.3125 64.9251 82.6731C65.8707 83.0337 66.6494 83.7316 67.1109 84.6323L71.7688 93.7235C71.8698 93.9206 71.9255 94.1378 71.9318 94.3592C71.9381 94.5806 71.8948 94.8006 71.8052 95.0031C71.7155 95.2057 71.5818 95.3856 71.4136 95.5298C71.2455 95.674 71.0473 95.7787 70.8335 95.8365Z" fill="#2F2E41"/>
<path d="M66.7583 179.59H70.8079L72.7348 163.969L66.7573 163.969L66.7583 179.59Z" fill="#FFB8B8"/>
<path d="M78.6187 183.35L65.8905 183.351L65.8903 178.433L73.7008 178.433C75.005 178.433 76.2559 178.951 77.1781 179.873C78.1004 180.795 78.6186 182.046 78.6187 183.35Z" fill="#2F2E41"/>
<path d="M30.6626 175.643L34.4516 177.073L41.7725 163.14L36.1805 161.029L30.6626 175.643Z" fill="#FFB8B8"/>
<path d="M40.4299 183.351L28.5223 178.855L30.2594 174.254L37.5664 177.013C38.7865 177.474 39.7737 178.4 40.3107 179.589C40.8478 180.777 40.8906 182.13 40.4299 183.351Z" fill="#2F2E41"/>
<path d="M66.6305 175.962C66.3166 175.962 66.0108 175.862 65.757 175.677C65.5033 175.492 65.3146 175.232 65.2181 174.933L54.8889 143.034C54.8583 142.94 54.8 142.856 54.7215 142.796C54.643 142.735 54.548 142.699 54.4488 142.692C54.3496 142.686 54.2508 142.71 54.1653 142.76C54.0797 142.811 54.0113 142.886 53.969 142.976L39.654 173.433C39.499 173.763 39.2286 174.024 38.8941 174.167C38.5595 174.31 38.1841 174.326 37.8387 174.211L32.2009 172.332C31.8428 172.212 31.5437 171.96 31.3641 171.628C31.1846 171.296 31.138 170.907 31.2337 170.542L40.0023 137.328C40.9199 133.81 41.5826 130.23 41.9855 126.616C42.6004 120.665 45.3902 115.151 49.82 111.131C51.7542 109.359 53.0115 106.969 53.3764 104.371L53.4 104.205L66.2414 106.233L74.3755 172.607C74.4176 172.962 74.3308 173.32 74.1309 173.617C73.931 173.913 73.6314 174.128 73.2864 174.223L67.0187 175.91C66.8921 175.944 66.7616 175.962 66.6305 175.962Z" fill="#2F2E41"/>
<path d="M57.4428 77.7537C61.9237 77.7537 65.5562 74.1212 65.5562 69.6403C65.5562 65.1594 61.9237 61.5269 57.4428 61.5269C52.9618 61.5269 49.3293 65.1594 49.3293 69.6403C49.3293 74.1212 52.9618 77.7537 57.4428 77.7537Z" fill="#FFB8B8"/>
<path d="M65.4434 107.648C65.418 107.648 65.3926 107.647 65.367 107.646L52.6372 107.009C52.2818 106.993 51.9442 106.85 51.6862 106.605C51.4282 106.36 51.2672 106.03 51.2326 105.676L49.4935 88.7209C49.3662 87.4792 49.5445 86.2252 50.0128 85.0682C50.4811 83.9112 51.2253 82.8863 52.1804 82.0827C53.1355 81.2792 54.2727 80.7214 55.4928 80.458C56.7129 80.1946 57.9788 80.2336 59.1804 80.5715C60.1759 80.8441 61.1036 81.3214 61.9043 81.9727C70.8591 89.3267 67.9718 102.651 66.8735 106.56C66.7874 106.873 66.6008 107.149 66.3424 107.346C66.084 107.542 65.7681 107.648 65.4434 107.648Z" fill="#F08E17"/>
<path d="M54.3689 119.033C54.0145 119.033 53.6621 118.98 53.3232 118.876C52.8332 118.728 52.38 118.477 51.9935 118.142C51.607 117.806 51.2958 117.392 51.0803 116.928C50.8648 116.463 50.7499 115.958 50.7431 115.446C50.7363 114.934 50.8378 114.427 51.0409 113.956C51.0884 113.847 51.1417 113.741 51.2005 113.637L43.5581 99.3397C42.9589 98.2086 42.7405 96.9145 42.9352 95.6494C43.1299 94.3843 43.7273 93.2157 44.6388 92.3171L48.1516 88.8799L52.4557 93.5804L49.8616 96.6638L55.3591 111.903C55.5156 111.946 55.669 111.999 55.818 112.063C56.586 112.395 57.2159 112.981 57.6014 113.724C57.9869 114.466 58.1044 115.319 57.9341 116.138C57.7639 116.957 57.3162 117.693 56.6667 118.22C56.0172 118.748 55.2056 119.035 54.3689 119.033Z" fill="#FFB8B8"/>
<path d="M50.5619 96.6622L45.0829 91.8579C44.7869 91.5977 44.6061 91.2307 44.5803 90.8374C44.5545 90.4442 44.6858 90.0567 44.9453 89.7601L51.1744 82.6562C51.8417 81.8953 52.767 81.4083 53.772 81.2892C54.777 81.1701 55.7905 81.4273 56.6171 82.0113C57.4437 82.5952 58.0249 83.4645 58.2485 84.4515C58.4721 85.4386 58.3223 86.4734 57.8281 87.3566L52.8392 96.2705C52.731 96.4638 52.581 96.6304 52.4002 96.7583C52.2194 96.8862 52.0122 96.972 51.794 97.0096C51.5757 97.0471 51.3518 97.0354 51.1386 96.9753C50.9254 96.9152 50.7284 96.8082 50.5619 96.6622Z" fill="#2F2E41"/>
<path d="M52.2218 77.5213C52.962 77.7838 53.8696 78.0152 54.4521 77.4709C55.0208 76.9394 54.9172 75.9675 54.5822 75.2515C54.2472 74.5355 53.7276 73.8983 53.5683 73.119C53.34 72.0021 53.9303 70.8417 54.7729 70.1135C55.6156 69.3854 56.6762 69.0029 57.7117 68.6348L63.3912 66.6158C64.7971 66.1161 66.312 65.529 67.0988 64.2139C68.2371 62.3109 67.1964 59.5908 65.3292 58.4804C63.462 57.37 61.1034 57.5769 59.0889 58.3576C57.9747 58.7895 56.9148 59.3845 55.7625 59.6885C53.4884 60.2885 50.9026 59.7503 48.9042 61.0325C47.1646 62.1487 46.3577 64.4262 46.4163 66.5572C46.4749 68.6882 47.2595 70.7176 48.0871 72.6665C48.5795 73.8259 49.1055 74.9988 49.9394 75.9209C50.7734 76.8431 51.9786 77.4882 53.1824 77.3186L52.2218 77.5213Z" fill="#2F2E41"/>
<path d="M44.7859 69.2135C48.4347 69.2135 51.3927 66.2555 51.3927 62.6067C51.3927 58.9579 48.4347 56 44.7859 56C41.1371 56 38.1792 58.9579 38.1792 62.6067C38.1792 66.2555 41.1371 69.2135 44.7859 69.2135Z" fill="#2F2E41"/>
<path d="M98.3705 100.744L98.2533 100.728L98.6948 97.5161C98.7626 97.0231 98.6317 96.5233 98.331 96.1268C98.0303 95.7303 97.5844 95.4694 97.0914 95.4016L90.2866 94.4662C89.7935 94.3984 89.2938 94.5293 88.8973 94.83C88.5007 95.1307 88.2399 95.5766 88.1721 96.0696L85.7499 113.69C85.6821 114.183 85.813 114.683 86.1137 115.079C86.4144 115.476 86.8603 115.737 87.3533 115.804L94.1581 116.74C94.6511 116.808 95.1509 116.677 95.5474 116.376C95.944 116.075 96.2048 115.629 96.2726 115.136L97.939 103.014L98.0562 103.03L98.3705 100.744Z" fill="#3F3D56"/>
<path d="M96.8774 96.344L96.0302 96.2276C96.056 96.3285 96.0567 96.4342 96.032 96.5354C96.0074 96.6365 95.9582 96.7301 95.8889 96.8078C95.8196 96.8855 95.7322 96.945 95.6345 96.981C95.5368 97.017 95.4317 97.0284 95.3285 97.0142L91.6101 96.5031C91.5069 96.4889 91.4088 96.4495 91.3245 96.3885C91.2401 96.3275 91.172 96.2466 91.1262 96.1531C91.0805 96.0596 91.0584 95.9562 91.062 95.8521C91.0656 95.7481 91.0947 95.6465 91.1468 95.5563L90.3555 95.4475C90.1816 95.4236 90.0047 95.4342 89.8349 95.4786C89.6651 95.5231 89.5057 95.6006 89.3658 95.7066C89.2259 95.8127 89.1083 95.9453 89.0197 96.0968C88.9311 96.2483 88.8732 96.4158 88.8493 96.5896L86.5422 113.372C86.494 113.723 86.5872 114.079 86.8014 114.362C87.0156 114.644 87.3332 114.83 87.6844 114.878L94.2063 115.775C94.5575 115.823 94.9135 115.73 95.196 115.516C95.4784 115.302 95.6642 114.984 95.7125 114.633L98.0195 97.8502C98.0678 97.499 97.9746 97.143 97.7604 96.8606C97.5462 96.5781 97.2286 96.3923 96.8774 96.344Z" fill="white"/>
<path d="M92.2519 110.278C94.2587 110.278 95.8856 108.651 95.8856 106.644C95.8856 104.637 94.2587 103.01 92.2519 103.01C90.245 103.01 88.6182 104.637 88.6182 106.644C88.6182 108.651 90.245 110.278 92.2519 110.278Z" fill="#F08E17"/>
<path d="M91.8918 108.03C91.8101 108.03 91.7305 108.004 91.6651 107.955L91.661 107.952L90.8071 107.298C90.7673 107.268 90.7339 107.23 90.7088 107.187C90.6836 107.144 90.6673 107.096 90.6606 107.046C90.654 106.997 90.6571 106.947 90.67 106.898C90.6828 106.85 90.7051 106.805 90.7355 106.765C90.7658 106.726 90.8038 106.692 90.847 106.667C90.8903 106.642 90.938 106.626 90.9876 106.62C91.0371 106.613 91.0874 106.617 91.1356 106.63C91.1839 106.643 91.229 106.665 91.2686 106.696L91.8217 107.12L93.1288 105.415C93.1591 105.376 93.1969 105.342 93.2401 105.317C93.2832 105.293 93.3308 105.276 93.3802 105.27C93.4296 105.263 93.4798 105.267 93.5279 105.28C93.5761 105.292 93.6212 105.315 93.6607 105.345C93.7405 105.406 93.7929 105.497 93.806 105.597C93.8192 105.696 93.7923 105.797 93.7311 105.877L92.1937 107.882C92.1581 107.928 92.1124 107.966 92.06 107.991C92.0077 108.017 91.9501 108.03 91.8918 108.03Z" fill="white"/>
<path d="M279.607 183.605H2.35703C2.25291 183.605 2.15316 183.563 2.07965 183.489C2.00613 183.416 1.96484 183.316 1.96484 183.212C1.96484 183.108 2.00613 183.008 2.07965 182.934C2.15316 182.86 2.25291 182.819 2.35703 182.818H279.607C279.711 182.818 279.811 182.86 279.885 182.934C279.959 183.007 280 183.107 280 183.212C280 183.316 279.959 183.416 279.885 183.49C279.811 183.564 279.711 183.605 279.607 183.605Z" fill="#CCCCCC"/>
</g>
<defs>
<clipPath id="clip0_1203_7448">
<rect width="280" height="240" fill="white"/>
</clipPath>
</defs>
</svg>
