<svg width="280" height="240" viewBox="0 0 280 240" fill="none" xmlns="http://www.w3.org/2000/svg">
<path d="M224.168 198.894H114.351C111.748 198.891 109.253 197.856 107.412 196.015C105.572 194.175 104.537 191.679 104.534 189.076V29.8175C104.537 27.2147 105.572 24.7192 107.412 22.8787C109.253 21.0382 111.748 20.0029 114.351 20H224.168C226.771 20.0029 229.266 21.0382 231.107 22.8787C232.947 24.7192 233.982 27.2147 233.985 29.8175V189.076C233.982 191.679 232.947 194.175 231.107 196.015C229.266 197.856 226.771 198.891 224.168 198.894Z" fill="#CBCBCB"/>
<path d="M224.361 192.63H114.158C113.356 192.629 112.586 192.31 112.019 191.743C111.452 191.175 111.133 190.406 111.132 189.604V29.2902C111.133 28.4878 111.452 27.7186 112.019 27.1512C112.586 26.5838 113.356 26.2647 114.158 26.2638H224.361C225.164 26.2647 225.933 26.5839 226.5 27.1512C227.067 27.7186 227.387 28.4878 227.388 29.2902V189.604C227.387 190.406 227.067 191.175 226.5 191.743C225.933 192.31 225.164 192.629 224.361 192.63Z" fill="white"/>
<path d="M168.842 23.8419C169.303 23.8419 169.677 23.4679 169.677 23.0067C169.677 22.5454 169.303 22.1715 168.842 22.1715C168.381 22.1715 168.007 22.5454 168.007 23.0067C168.007 23.4679 168.381 23.8419 168.842 23.8419Z" fill="white"/>
<path d="M168.257 148.772H168.194C168.057 148.772 167.925 148.717 167.828 148.62C167.731 148.523 167.677 148.392 167.677 148.255V143.085C167.677 142.948 167.731 142.817 167.828 142.72C167.925 142.623 168.057 142.568 168.194 142.568H168.257C168.395 142.568 168.526 142.623 168.623 142.72C168.72 142.817 168.774 142.948 168.774 143.085V148.255C168.774 148.392 168.72 148.523 168.623 148.62C168.526 148.717 168.395 148.772 168.257 148.772Z" fill="#3F3D56"/>
<path d="M170.325 148.772H170.262C170.125 148.772 169.993 148.717 169.896 148.62C169.799 148.523 169.745 148.392 169.745 148.255V143.085C169.745 142.948 169.799 142.817 169.896 142.72C169.993 142.623 170.125 142.568 170.262 142.568H170.325C170.462 142.568 170.594 142.623 170.691 142.72C170.788 142.817 170.842 142.948 170.842 143.085V148.255C170.842 148.392 170.788 148.523 170.691 148.62C170.594 148.717 170.462 148.772 170.325 148.772Z" fill="#3F3D56"/>
<path d="M125.209 148.723H125.146C125.009 148.723 124.877 148.668 124.78 148.571C124.683 148.475 124.629 148.343 124.629 148.206V143.036C124.629 142.899 124.683 142.768 124.78 142.671C124.877 142.574 125.009 142.52 125.146 142.52H125.209C125.346 142.52 125.478 142.574 125.575 142.671C125.672 142.768 125.726 142.899 125.726 143.036V148.206C125.726 148.343 125.672 148.475 125.575 148.571C125.478 148.668 125.346 148.723 125.209 148.723Z" fill="#3F3D56"/>
<path d="M128.281 148.772C128.231 148.772 128.182 148.76 128.138 148.737C128.094 148.714 128.057 148.681 128.028 148.64L126.154 145.978C126.094 145.892 126.061 145.789 126.06 145.684C126.06 145.578 126.091 145.475 126.151 145.388L128.026 142.662C128.064 142.607 128.118 142.566 128.18 142.544C128.243 142.523 128.311 142.522 128.374 142.541C128.437 142.561 128.492 142.6 128.531 142.654C128.571 142.707 128.592 142.771 128.592 142.837V148.461C128.592 148.527 128.571 148.592 128.532 148.645C128.493 148.698 128.438 148.737 128.375 148.757C128.345 148.767 128.313 148.772 128.281 148.772Z" fill="#3F3D56"/>
<path d="M212.793 148.206V143.036C212.793 142.899 212.847 142.768 212.944 142.671C213.041 142.574 213.173 142.52 213.31 142.52H213.373C213.511 142.52 213.642 142.574 213.739 142.671C213.836 142.768 213.89 142.899 213.89 143.036V148.206C213.89 148.343 213.836 148.475 213.739 148.571C213.642 148.668 213.511 148.723 213.373 148.723H213.31C213.173 148.723 213.041 148.668 212.944 148.571C212.847 148.475 212.793 148.343 212.793 148.206Z" fill="#3F3D56"/>
<path d="M210.144 148.757C210.081 148.737 210.026 148.698 209.987 148.645C209.948 148.592 209.927 148.527 209.927 148.461V142.837C209.927 142.771 209.948 142.707 209.987 142.654C210.027 142.6 210.082 142.561 210.145 142.541C210.208 142.522 210.276 142.523 210.339 142.544C210.401 142.566 210.455 142.607 210.493 142.662L212.368 145.388C212.428 145.475 212.459 145.578 212.459 145.684C212.458 145.789 212.425 145.892 212.365 145.978L210.491 148.64C210.462 148.681 210.424 148.714 210.38 148.737C210.336 148.76 210.287 148.772 210.238 148.772C210.206 148.772 210.174 148.767 210.144 148.757Z" fill="#3F3D56"/>
<path d="M213.856 132.353H124.801V133.042H213.856V132.353Z" fill="#CBCBCB"/>
<path d="M185.113 132.353H124.801V133.042H185.113V132.353Z" fill="#00BCF2"/>
<path d="M185.113 135.11C186.445 135.11 187.525 134.03 187.525 132.697C187.525 131.365 186.445 130.285 185.113 130.285C183.781 130.285 182.7 131.365 182.7 132.697C182.7 134.03 183.781 135.11 185.113 135.11Z" fill="#00BCF2"/>
<path d="M169.259 84.6199C167.66 84.6181 166.127 83.9821 164.997 82.8514C163.866 81.7207 163.23 80.1877 163.228 78.5887V65.4924C163.228 63.8928 163.864 62.3588 164.995 61.2277C166.126 60.0966 167.66 59.4612 169.259 59.4612C170.859 59.4612 172.393 60.0966 173.524 61.2277C174.655 62.3588 175.291 63.8928 175.291 65.4924V78.5887C175.289 80.1877 174.653 81.7207 173.522 82.8514C172.391 83.9821 170.858 84.6181 169.259 84.6199Z" fill="#00BCF2"/>
<path d="M169.259 89.6173C165.879 89.6134 162.637 88.2687 160.247 85.8782C157.856 83.4876 156.512 80.2464 156.508 76.8656C156.508 76.5914 156.617 76.3284 156.811 76.1345C157.005 75.9406 157.268 75.8317 157.542 75.8317C157.816 75.8317 158.079 75.9406 158.273 76.1345C158.467 76.3284 158.576 76.5914 158.576 76.8656C158.576 79.6991 159.701 82.4166 161.705 84.4202C163.708 86.4238 166.426 87.5494 169.259 87.5494C172.093 87.5494 174.81 86.4238 176.814 84.4202C178.818 82.4166 179.943 79.6991 179.943 76.8656C179.943 76.5914 180.052 76.3284 180.246 76.1345C180.44 75.9406 180.703 75.8317 180.977 75.8317C181.251 75.8317 181.514 75.9406 181.708 76.1345C181.902 76.3284 182.011 76.5914 182.011 76.8656C182.007 80.2464 180.663 83.4876 178.272 85.8782C175.881 88.2687 172.64 89.6134 169.259 89.6173Z" fill="#00BCF2"/>
<path d="M169.26 101.335C168.985 101.335 168.722 101.226 168.528 101.032C168.335 100.838 168.226 100.575 168.226 100.301V88.928C168.226 88.6538 168.335 88.3908 168.528 88.1969C168.722 88.003 168.985 87.894 169.26 87.894C169.534 87.894 169.797 88.003 169.991 88.1969C170.184 88.3908 170.293 88.6538 170.293 88.928V100.301C170.293 100.575 170.184 100.838 169.991 101.032C169.797 101.226 169.534 101.335 169.26 101.335Z" fill="#00BCF2"/>
<path d="M166.847 64.1139C167.228 64.1139 167.536 63.8053 167.536 63.4246C167.536 63.044 167.228 62.7354 166.847 62.7354C166.466 62.7354 166.158 63.044 166.158 63.4246C166.158 63.8053 166.466 64.1139 166.847 64.1139Z" fill="white"/>
<path d="M166.847 70.6621C167.228 70.6621 167.536 70.3535 167.536 69.9728C167.536 69.5922 167.228 69.2836 166.847 69.2836C166.466 69.2836 166.158 69.5922 166.158 69.9728C166.158 70.3535 166.466 70.6621 166.847 70.6621Z" fill="white"/>
<path d="M171.672 66.5264C172.053 66.5264 172.361 66.2178 172.361 65.8371C172.361 65.4564 172.053 65.1478 171.672 65.1478C171.291 65.1478 170.983 65.4564 170.983 65.8371C170.983 66.2178 171.291 66.5264 171.672 66.5264Z" fill="white"/>
<path d="M177.449 101.52H161.07C160.795 101.52 160.532 101.411 160.338 101.217C160.145 101.023 160.036 100.76 160.036 100.486C160.036 100.212 160.145 99.949 160.338 99.7551C160.532 99.5612 160.795 99.4523 161.07 99.4523H177.449C177.724 99.4523 177.987 99.5612 178.18 99.7551C178.374 99.949 178.483 100.212 178.483 100.486C178.483 100.76 178.374 101.023 178.18 101.217C177.987 101.411 177.724 101.52 177.449 101.52Z" fill="#00BCF2"/>
<path opacity="0.1" d="M279.637 162.408C279.838 162.408 280 162.245 280 162.045C280 161.845 279.838 161.682 279.637 161.682C279.437 161.682 279.274 161.845 279.274 162.045C279.274 162.245 279.437 162.408 279.637 162.408Z" fill="black"/>
<path opacity="0.1" d="M278.404 168.421C278.605 168.421 278.767 168.258 278.767 168.058C278.767 167.857 278.605 167.695 278.404 167.695C278.204 167.695 278.041 167.857 278.041 168.058C278.041 168.258 278.204 168.421 278.404 168.421Z" fill="black"/>
<path d="M65.0362 149.786C65.5207 149.545 65.9466 149.2 66.2836 148.777C66.6207 148.353 66.8608 147.861 66.987 147.335C67.1132 146.808 67.1225 146.261 67.0142 145.73C66.9059 145.2 66.6826 144.7 66.3601 144.265L69.1286 117.197H63.1456L60.9454 143.628C60.2511 144.218 59.7974 145.042 59.6702 145.945C59.5431 146.847 59.7513 147.765 60.2556 148.524C60.7598 149.283 61.525 149.83 62.4061 150.063C63.2872 150.296 64.223 150.197 65.0362 149.786Z" fill="#9F616A"/>
<path d="M70.5297 102.259C75.2046 102.259 78.9944 98.4691 78.9944 93.7942C78.9944 89.1192 75.2046 85.3295 70.5297 85.3295C65.8547 85.3295 62.0649 89.1192 62.0649 93.7942C62.0649 98.4691 65.8547 102.259 70.5297 102.259Z" fill="#9F616A"/>
<path d="M72.123 132.961C71.7842 132.961 71.4547 132.849 71.1852 132.644C70.9157 132.439 70.721 132.15 70.631 131.824C69.9529 129.36 68.1884 125.194 65.3869 119.441C64.7548 118.141 64.4047 116.721 64.3597 115.276C64.3147 113.831 64.5758 112.392 65.1258 111.055C65.6758 109.718 66.5024 108.512 67.5512 107.517C68.6 106.521 69.8474 105.759 71.2116 105.28C72.5044 104.823 73.8756 104.631 75.2441 104.713C76.6125 104.796 77.9505 105.153 79.1789 105.761C80.4072 106.37 81.5009 107.22 82.3953 108.259C83.2898 109.298 83.9667 110.506 84.3861 111.811C86.5576 118.619 86.4528 125.911 86.3069 128.73C86.2887 129.07 86.1598 129.394 85.9398 129.653C85.7199 129.913 85.421 130.093 85.0889 130.166L72.4556 132.925C72.3464 132.949 72.2349 132.961 72.123 132.961Z" fill="#00BCF2"/>
<path d="M84.3569 213.341H88.5822L90.5921 197.043H84.3562L84.3569 213.341Z" fill="#9F616A"/>
<path d="M83.2793 217.436L83.2791 211.961L91.6 211.961C93.0064 211.961 94.3553 212.519 95.3498 213.514C96.3443 214.508 96.9031 215.857 96.9031 217.263V217.436L83.2793 217.436Z" fill="#2F2E41"/>
<path d="M42.1072 207.865L45.8096 209.9L55.4234 196.588L49.9588 193.583L42.1072 207.865Z" fill="#9F616A"/>
<path d="M51.1281 217.498L39.1895 210.935L41.8273 206.136L49.1189 210.145C50.3501 210.824 51.2619 211.964 51.6541 213.314C52.0463 214.664 51.887 216.114 51.2111 217.347L51.1281 217.498Z" fill="#2F2E41"/>
<path d="M84.1595 204.295C83.783 204.294 83.4195 204.157 83.1367 203.909C82.854 203.66 82.6714 203.317 82.623 202.943L77.3389 162.225C77.3155 162.045 77.2359 161.877 77.1113 161.744C76.9867 161.612 76.8235 161.523 76.6451 161.489C76.4666 161.455 76.2821 161.479 76.1177 161.556C75.9534 161.633 75.8177 161.761 75.73 161.92L53.7079 201.874C53.5262 202.2 53.2335 202.45 52.8829 202.579C52.5324 202.708 52.1473 202.706 51.7977 202.575L46.9975 200.746C46.8045 200.673 46.628 200.561 46.4786 200.418C46.3292 200.276 46.2098 200.105 46.1274 199.915C46.045 199.726 46.0013 199.522 45.9989 199.315C45.9965 199.109 46.0353 198.904 46.1132 198.712L61.3684 161.237C61.407 161.142 61.4332 161.042 61.4463 160.94C63.5126 144.948 68.7698 136.815 70.3318 134.703C70.4458 134.548 70.5209 134.368 70.5507 134.178C70.5804 133.987 70.5639 133.793 70.5026 133.61L70.2879 132.966C70.2021 132.71 70.1846 132.436 70.2369 132.172C70.2892 131.907 70.4097 131.661 70.5864 131.457C76.2148 125.046 86.0249 128.545 86.1234 128.581L86.1725 128.599L86.2033 128.641C97.2033 143.727 93.1362 192.725 92.2092 202.394C92.1746 202.757 92.0126 203.097 91.7519 203.352C91.4912 203.607 91.1485 203.762 90.7845 203.79L84.2799 204.29C84.2395 204.293 84.1994 204.295 84.1595 204.295Z" fill="#2F2E41"/>
<path d="M103.437 103.627C103.395 103.813 103.367 104.002 103.355 104.192L88.5498 112.733L84.9512 110.661L81.115 115.684L87.1291 119.97C87.6149 120.316 88.2 120.496 88.7965 120.481C89.3929 120.467 89.9686 120.259 90.437 119.889L105.703 107.846C106.392 108.101 107.143 108.14 107.854 107.958C108.566 107.776 109.206 107.382 109.688 106.828C110.17 106.274 110.473 105.586 110.554 104.856C110.636 104.126 110.494 103.388 110.146 102.741C109.799 102.094 109.262 101.568 108.608 101.233C107.954 100.898 107.214 100.77 106.486 100.866C105.757 100.963 105.076 101.278 104.531 101.771C103.986 102.264 103.605 102.912 103.437 103.627Z" fill="#9F616A"/>
<path d="M88.0551 113.137L83.2702 119.339C83.134 119.515 82.9614 119.66 82.7642 119.764C82.5669 119.868 82.3496 119.928 82.1271 119.94C81.9046 119.952 81.682 119.916 81.4746 119.835C81.2672 119.753 81.0799 119.628 80.9253 119.467L75.5084 113.842C74.6084 113.141 74.0235 112.111 73.8819 110.979C73.7404 109.847 74.0538 108.705 74.7534 107.804C75.4531 106.902 76.4817 106.316 77.6136 106.172C78.7454 106.028 79.8881 106.34 80.7906 107.038L87.5845 110.837C87.779 110.945 87.9477 111.095 88.0793 111.275C88.2108 111.455 88.302 111.661 88.3466 111.879C88.3913 112.098 88.3883 112.323 88.338 112.54C88.2877 112.757 88.1912 112.961 88.0551 113.137Z" fill="#00BCF2"/>
<path d="M69.5093 123.912L61.8012 122.52C61.5818 122.48 61.3736 122.394 61.1907 122.267C61.0078 122.139 60.8545 121.974 60.7412 121.782C60.6279 121.59 60.5573 121.376 60.5342 121.154C60.5111 120.933 60.5361 120.709 60.6074 120.498L63.1062 113.099C63.3151 111.978 63.9601 110.986 64.8996 110.339C65.8391 109.693 66.9966 109.446 68.1182 109.652C69.2398 109.858 70.2339 110.5 70.8827 111.438C71.5314 112.376 71.7817 113.532 71.5788 114.655L71.335 122.435C71.328 122.657 71.273 122.876 71.1738 123.076C71.0747 123.275 70.9336 123.451 70.7604 123.591C70.5871 123.731 70.3857 123.833 70.1698 123.888C69.9539 123.943 69.7286 123.951 69.5093 123.912Z" fill="#00BCF2"/>
<path d="M71.8692 91.8472C74.0448 93.3362 76.9014 94.8669 79.1235 93.2812C80.5825 92.24 81.0422 90.3119 80.4506 88.62C79.3866 85.5773 76.4633 84.2378 73.6679 83.211C70.0338 81.8762 66.0769 80.8143 62.3254 81.7702C58.5738 82.7261 55.2583 86.3584 55.9355 90.1701C56.4802 93.2354 59.3716 95.786 58.9611 98.8721C58.548 101.978 55.0551 103.613 51.9713 104.168C48.8876 104.723 45.4368 104.902 43.2207 107.117C40.3935 109.942 41.0995 114.993 43.7597 117.976C46.4199 120.959 50.4343 122.312 54.3243 123.231C59.4782 124.449 65.0525 125.089 69.9475 123.068C74.8424 121.046 78.6516 115.605 77.2336 110.502C76.6347 108.347 75.2237 106.525 73.8601 104.752C72.4965 102.979 71.1157 101.124 70.5955 98.9486C70.1621 97.1356 70.4829 95.0305 71.6852 93.6705C71.9039 93.4324 72.0415 93.1312 72.0783 92.8101C72.1152 92.4889 72.0492 92.1644 71.8901 91.883L71.8692 91.8472Z" fill="#2F2E41"/>
<path d="M131.652 218.168H0.34464C0.253236 218.168 0.165575 218.132 0.100942 218.067C0.0363099 218.002 0 217.915 0 217.823C0 217.732 0.0363099 217.644 0.100942 217.58C0.165575 217.515 0.253236 217.479 0.34464 217.479H131.652C131.744 217.479 131.832 217.515 131.896 217.58C131.961 217.644 131.997 217.732 131.997 217.823C131.997 217.915 131.961 218.002 131.896 218.067C131.832 218.132 131.744 218.168 131.652 218.168Z" fill="#CBCBCB"/>
</svg>
