<svg width="280" height="240" viewBox="0 0 280 240" fill="none" xmlns="http://www.w3.org/2000/svg">
<path d="M165.332 40.083H134.388V40.6725H165.332V40.083Z" fill="#CCCCCC"/>
<path d="M110.221 40.083H12.083V40.6725H110.221V40.083Z" fill="#CCCCCC"/>
<path d="M12.083 52.4604C18.7562 52.4604 24.166 47.0507 24.166 40.3774C24.166 33.7042 18.7562 28.2944 12.083 28.2944C5.40973 28.2944 0 33.7042 0 40.3774C0 47.0507 5.40973 52.4604 12.083 52.4604Z" fill="#FFF7CC"/>
<path d="M67.1937 52.4604C73.8669 52.4604 79.2767 47.0507 79.2767 40.3774C79.2767 33.7042 73.8669 28.2944 67.1937 28.2944C60.5205 28.2944 55.1107 33.7042 55.1107 40.3774C55.1107 47.0507 60.5205 52.4604 67.1937 52.4604Z" fill="#E5C100"/>
<path d="M122.303 52.7558C119.855 52.7558 117.462 52.0298 115.426 50.6697C113.391 49.3096 111.804 47.3765 110.867 45.1147C109.931 42.8529 109.685 40.3642 110.163 37.9631C110.641 35.562 111.819 33.3565 113.551 31.6254C115.282 29.8943 117.487 28.7154 119.888 28.2378C122.289 27.7602 124.778 28.0054 127.04 28.9422C129.302 29.8791 131.235 31.4656 132.595 33.5011C133.955 35.5366 134.681 37.9298 134.681 40.3779C134.681 43.6607 133.377 46.8091 131.056 49.1304C128.734 51.4517 125.586 52.7558 122.303 52.7558ZM122.303 28.5895C119.972 28.5895 117.692 29.2809 115.754 30.5762C113.815 31.8715 112.304 33.7126 111.412 35.8667C110.52 38.0207 110.286 40.391 110.741 42.6777C111.196 44.9644 112.319 47.0649 113.967 48.7135C115.616 50.3622 117.717 51.4849 120.003 51.9398C122.29 52.3946 124.66 52.1612 126.814 51.2689C128.968 50.3767 130.809 48.8658 132.105 46.9272C133.4 44.9886 134.091 42.7094 134.091 40.3779C134.091 37.2514 132.849 34.253 130.639 32.0422C128.428 29.8315 125.43 28.5895 122.303 28.5895Z" fill="#CCCCCC"/>
<path d="M177.414 52.7558C174.966 52.7558 172.573 52.0298 170.537 50.6697C168.501 49.3096 166.915 47.3765 165.978 45.1147C165.041 42.8529 164.796 40.3642 165.274 37.9631C165.751 35.562 166.93 33.3565 168.661 31.6254C170.392 29.8943 172.598 28.7154 174.999 28.2378C177.4 27.7602 179.889 28.0054 182.151 28.9422C184.412 29.8791 186.346 31.4656 187.706 33.5011C189.066 35.5366 189.792 37.9298 189.792 40.3779C189.792 43.6607 188.488 46.8091 186.166 49.1304C183.845 51.4517 180.697 52.7558 177.414 52.7558ZM177.414 28.5895C175.082 28.5895 172.803 29.2809 170.864 30.5762C168.926 31.8715 167.415 33.7126 166.523 35.8667C165.631 38.0207 165.397 40.391 165.852 42.6777C166.307 44.9644 167.429 47.0649 169.078 48.7135C170.727 50.3622 172.827 51.4849 175.114 51.9398C177.401 52.3946 179.771 52.1612 181.925 51.2689C184.079 50.3767 185.92 48.8658 187.215 46.9272C188.511 44.9886 189.202 42.7094 189.202 40.3779C189.202 38.8298 188.897 37.2969 188.305 35.8667C187.712 34.4364 186.844 33.1369 185.749 32.0422C184.655 30.9476 183.355 30.0793 181.925 29.4868C180.495 28.8944 178.962 28.5895 177.414 28.5895Z" fill="#CCCCCC"/>
<path d="M11.1528 43.9801C10.9405 43.9803 10.734 43.9114 10.5643 43.784L10.5538 43.7761L8.33606 42.0799C8.12864 41.9208 7.99289 41.6859 7.95868 41.4268C7.92447 41.1677 7.99458 40.9056 8.15362 40.6981C8.31265 40.4907 8.54757 40.355 8.80669 40.3208C9.06581 40.2865 9.32792 40.3567 9.53534 40.5157L10.9716 41.6172L14.3658 37.1889C14.5247 36.9816 14.7595 36.8459 15.0185 36.8117C15.2775 36.7775 15.5395 36.8476 15.7468 37.0065L15.7259 37.0356L15.7475 37.0065C15.9546 37.1657 16.0901 37.4005 16.1243 37.6595C16.1584 37.9185 16.0884 38.1805 15.9296 38.3879L11.9371 43.594C11.8447 43.714 11.7258 43.8111 11.5897 43.8778C11.4536 43.9444 11.304 43.9787 11.1525 43.9782L11.1528 43.9801Z" fill="#E5C100"/>
<path d="M214.673 92.0703C214.899 92.1735 215.116 92.2946 215.322 92.4326L235.971 83.6198L236.707 78.1806L244.958 78.1299L244.471 90.6059L217.217 97.8143C217.159 98.0035 217.09 98.1892 217.01 98.3701C216.616 99.2109 215.983 99.9165 215.189 100.398C214.395 100.88 213.477 101.117 212.549 101.078C211.621 101.04 210.725 100.728 209.974 100.182C209.223 99.6362 208.65 98.8805 208.327 98.01C208.004 97.1395 207.945 96.1929 208.158 95.2892C208.371 94.3854 208.846 93.5647 209.524 92.9302C210.202 92.2957 211.053 91.8757 211.969 91.7229C212.884 91.5701 213.825 91.6913 214.672 92.0713L214.673 92.0703Z" fill="#FEB8B8"/>
<path d="M247.959 205.119H242.314L239.63 183.349H247.959L247.959 205.119Z" fill="#FEB8B8"/>
<path d="M238.283 203.506H249.168V210.358H231.429C231.429 208.54 232.152 206.797 233.437 205.511C234.722 204.226 236.465 203.504 238.283 203.504V203.506Z" fill="#2F2E41"/>
<path d="M269.909 203.524L264.293 204.077L259.486 182.675L267.776 181.86L269.909 203.524Z" fill="#FEB8B8"/>
<path d="M260.119 202.869L270.95 201.802L271.621 208.622L253.972 210.36C253.794 208.552 254.341 206.746 255.494 205.342C256.647 203.937 258.31 203.047 260.119 202.869H260.119Z" fill="#2F2E41"/>
<path d="M249.53 55.0893C255.775 55.0893 260.837 50.027 260.837 43.7822C260.837 37.5375 255.775 32.4751 249.53 32.4751C243.285 32.4751 238.223 37.5375 238.223 43.7822C238.223 50.027 243.285 55.0893 249.53 55.0893Z" fill="#FEB8B8"/>
<path d="M241.053 200.716C240.568 200.717 240.098 200.546 239.726 200.235C239.354 199.923 239.104 199.49 239.02 199.012C236.101 182.799 226.55 129.772 226.321 128.302C226.316 128.268 226.314 128.234 226.314 128.2V124.246C226.314 124.102 226.358 123.962 226.442 123.844L227.704 122.079C227.764 121.994 227.842 121.924 227.934 121.874C228.025 121.824 228.127 121.796 228.23 121.791C235.423 121.454 258.976 120.466 260.114 121.887C261.257 123.314 260.851 127.645 260.758 128.498L260.763 128.587L271.345 196.261C271.428 196.801 271.295 197.352 270.975 197.794C270.654 198.237 270.173 198.535 269.634 198.625L263.025 199.714C262.533 199.793 262.029 199.693 261.604 199.431C261.179 199.17 260.863 198.765 260.712 198.29C258.667 191.758 251.813 169.785 249.437 161.282C249.425 161.226 249.391 161.177 249.344 161.144C249.296 161.112 249.238 161.098 249.182 161.106C249.125 161.115 249.073 161.144 249.037 161.189C249 161.233 248.982 161.29 248.986 161.347C249.105 169.452 249.391 190.131 249.492 197.274L249.503 198.043C249.507 198.564 249.316 199.067 248.967 199.454C248.618 199.84 248.137 200.082 247.619 200.131L241.246 200.708C241.182 200.714 241.117 200.717 241.053 200.716Z" fill="#2F2E41"/>
<path d="M242.354 59.5356C240.381 60.7087 239.2 62.864 238.522 65.0612C237.268 69.1222 236.513 73.321 236.274 77.5646L235.557 90.2698L226.693 123.955C234.376 130.456 238.807 128.978 249.15 123.661C259.492 118.344 260.674 125.434 260.674 125.434L262.742 96.7719L265.697 65.4519C265.033 64.6533 264.283 63.9315 263.458 63.3002C260.727 61.176 257.55 59.6994 254.165 58.9817C250.781 58.264 247.277 58.3238 243.919 59.1567L242.354 59.5356Z" fill="#E5C100"/>
<path d="M239.475 98.8733C239.713 98.9625 239.944 99.0703 240.165 99.1957L260.583 88.9754L260.921 83.4391L269.343 82.8584L269.794 95.4789L242.51 104.503C242.287 105.459 241.779 106.325 241.052 106.985C240.326 107.645 239.415 108.068 238.442 108.198C237.469 108.328 236.48 108.159 235.605 107.712C234.731 107.266 234.013 106.564 233.547 105.7C233.081 104.836 232.89 103.851 232.998 102.875C233.106 101.899 233.508 100.979 234.152 100.238C234.796 99.4968 235.65 98.969 236.6 98.7249C237.551 98.4808 238.554 98.532 239.475 98.8717L239.475 98.8733Z" fill="#FEB8B8"/>
<path d="M265.55 65.5934C270.573 67.3662 271.458 86.5745 271.458 86.5745C265.548 83.3242 258.457 88.6428 258.457 88.6428C258.457 88.6428 256.979 83.6192 255.206 77.1189C254.671 75.2904 254.607 73.3562 255.02 71.4963C255.433 69.6363 256.311 67.9112 257.57 66.4814C257.57 66.4814 260.526 63.8197 265.55 65.5934Z" fill="#E5C100"/>
<path d="M259.666 46.7717C258.257 45.6447 256.336 47.6925 256.336 47.6925L255.209 37.5516C255.209 37.5516 248.165 38.3955 243.656 37.2698C239.147 36.1441 238.443 41.3567 238.443 41.3567C238.211 39.2516 238.164 37.1301 238.302 35.0167C238.584 32.4808 242.247 29.945 248.727 28.2543C255.208 26.5636 258.589 33.8897 258.589 33.8897C263.1 36.1421 261.077 47.9001 259.666 46.7717Z" fill="#2F2E41"/>
<rect x="102.25" y="76.25" width="105.5" height="27.5" rx="1.75" fill="#FFF7CC" stroke="black" stroke-width="0.5"/>
<path d="M280 210.359H38.9077V211.075H280V210.359Z" fill="#E6E6E6"/>
<path d="M62.1657 197.715C63.1974 198.078 64.305 198.169 65.382 197.979C66.4589 197.789 67.4689 197.325 68.3145 196.632C70.4681 194.824 71.1433 191.847 71.6926 189.089L73.3175 180.933L69.9156 183.276C67.469 184.96 64.9674 186.699 63.2731 189.139C61.5789 191.579 60.8396 194.91 62.2007 197.55" fill="#E6E6E6"/>
<path d="M62.6912 208.157C62.2629 205.037 61.8225 201.877 62.123 198.724C62.3898 195.924 63.2441 193.189 64.9835 190.946C65.9067 189.758 67.0301 188.74 68.3031 187.938C68.6349 187.728 68.9406 188.255 68.6101 188.463C66.4069 189.855 64.7028 191.911 63.7433 194.334C62.684 197.028 62.514 199.965 62.6971 202.827C62.8076 204.558 63.0414 206.277 63.2771 207.995C63.2957 208.072 63.284 208.154 63.2446 208.223C63.2051 208.293 63.1408 208.345 63.0646 208.369C62.9868 208.389 62.904 208.379 62.8339 208.339C62.7639 208.299 62.7124 208.234 62.6906 208.156L62.6912 208.157Z" fill="#F2F2F2"/>
<path d="M65.7733 203.151C66.2158 203.823 66.8239 204.371 67.5392 204.74C68.2545 205.109 69.0529 205.288 69.8573 205.259C71.9247 205.161 73.6484 203.718 75.1998 202.349L79.7889 198.297L76.7518 198.152C74.5678 198.048 72.3271 197.95 70.2454 198.624C68.1637 199.297 66.2464 200.918 65.8662 203.07" fill="#E6E6E6"/>
<path d="M61.4808 209.95C63.5406 206.303 65.9332 202.249 70.2056 200.953C71.3935 200.594 72.6391 200.465 73.8753 200.574C74.2651 200.607 74.1676 201.208 73.7772 201.175C71.705 201.003 69.6368 201.55 67.9208 202.724C66.2694 203.848 64.9838 205.411 63.8957 207.068C63.229 208.082 62.632 209.141 62.035 210.198C61.8447 210.535 61.2888 210.292 61.4808 209.95Z" fill="#F2F2F2"/>
<path d="M137.577 83.8164C137.233 83.8164 136.902 83.9531 136.659 84.1965C136.416 84.4399 136.279 84.7699 136.279 85.1141C136.279 85.4583 136.416 85.7883 136.659 86.0317C136.902 86.2751 137.233 86.4118 137.577 86.4118H198.753C199.097 86.4118 199.427 86.2751 199.67 86.0317C199.914 85.7883 200.05 85.4583 200.05 85.1141C200.05 84.7699 199.914 84.4399 199.67 84.1965C199.427 83.9531 199.097 83.8164 198.753 83.8164H137.577Z" fill="#212121"/>
<path d="M137.577 91.603C137.233 91.603 136.902 91.7397 136.659 91.9831C136.416 92.2265 136.279 92.5565 136.279 92.9007C136.279 93.2449 136.416 93.575 136.659 93.8183C136.902 94.0617 137.233 94.1984 137.577 94.1984H163.901C164.245 94.1984 164.575 94.0617 164.819 93.8183C165.062 93.575 165.199 93.2449 165.199 92.9007C165.199 92.5565 165.062 92.2265 164.819 91.9831C164.575 91.7397 164.245 91.603 163.901 91.603H137.577Z" fill="#212121"/>
<path d="M118 99C122.971 99 127 94.9706 127 90C127 85.0294 122.971 81 118 81C113.029 81 109 85.0294 109 90C109 94.9706 113.029 99 118 99Z" fill="#FFF7CC"/>
<path d="M117.417 94.6668C117.251 94.6668 117.113 94.6109 117.001 94.4991C116.889 94.3873 116.833 94.2488 116.833 94.0835V90.5835L113.348 86.1356C113.212 85.9703 113.192 85.7953 113.29 85.6106C113.387 85.4259 113.537 85.3335 113.742 85.3335H122.258C122.462 85.3335 122.613 85.4259 122.71 85.6106C122.808 85.7953 122.788 85.9703 122.652 86.1356L119.167 90.5835V94.0835C119.167 94.2488 119.111 94.3873 118.999 94.4991C118.887 94.6109 118.749 94.6668 118.583 94.6668H117.417ZM118 90.6418L121.5 86.2085H114.5L118 90.6418Z" fill="black"/>
</svg>
