<svg width="186" height="156" viewBox="0 0 186 156" fill="none" xmlns="http://www.w3.org/2000/svg">
<g clip-path="url(#clip0_307_65305)">
<path d="M87.3647 156C127.934 156 160.822 154.313 160.822 152.232C160.822 150.151 127.934 148.464 87.3647 148.464C46.7954 148.464 13.9075 150.151 13.9075 152.232C13.9075 154.313 46.7954 156 87.3647 156Z" fill="#470C78"/>
<path d="M130.282 36.205H129.447V13.2726C129.447 9.75253 128.053 6.37658 125.572 3.88747C123.09 1.39837 119.725 3.88648e-06 116.216 0H67.783C64.2739 -6.66248e-06 60.9085 1.39835 58.4272 3.88744C55.9459 6.37654 54.5519 9.75248 54.5519 13.2726V139.081C54.5519 142.602 55.9459 145.977 58.4272 148.467C60.9085 150.956 64.2738 152.354 67.7829 152.354H116.216C119.725 152.354 123.09 150.956 125.572 148.467C128.053 145.977 129.447 142.602 129.447 139.081V52.5287H130.281L130.282 36.205Z" fill="#3F3D56"/>
<path d="M126.631 13.3652V138.989C126.631 141.618 125.59 144.139 123.737 145.998C121.884 147.857 119.37 148.901 116.75 148.901H68.0842C65.4636 148.901 62.9503 147.857 61.0972 145.998C59.2441 144.139 58.2031 141.618 58.203 138.989V13.3652C58.2031 10.7363 59.2441 8.21509 61.0972 6.35618C62.9503 4.49728 65.4636 3.45293 68.0842 3.45288H73.988C73.6979 4.16798 73.5874 4.94364 73.6663 5.71163C73.7451 6.47961 74.0109 7.21639 74.4402 7.85714C74.8696 8.4979 75.4493 9.023 76.1284 9.38626C76.8075 9.74952 77.5652 9.9398 78.3349 9.94037H106.082C106.851 9.93979 107.609 9.74951 108.288 9.38625C108.967 9.02299 109.547 8.49789 109.976 7.85713C110.406 7.21638 110.671 6.4796 110.75 5.71162C110.829 4.94364 110.719 4.16798 110.429 3.45288H116.75C119.37 3.45293 121.884 4.49728 123.737 6.35618C125.59 8.21509 126.631 10.7363 126.631 13.3652Z" fill="white"/>
<path d="M110.953 67.5336C110.63 67.7032 110.301 67.8637 109.966 68.0151C109.661 68.1533 109.352 68.2831 109.037 68.4045C108.923 68.4484 108.806 68.4924 108.689 68.5364C107.765 68.8725 106.816 69.135 105.851 69.3214C105.373 69.4156 104.889 69.4896 104.398 69.5433C103.994 69.5893 103.585 69.6221 103.171 69.6417C102.877 69.6563 102.583 69.6626 102.286 69.6626C101.113 69.6631 99.942 69.5531 98.789 69.3339C98.4884 69.2795 98.1942 69.2146 97.8999 69.1434C96.4766 68.8013 95.0987 68.2911 93.7951 67.6236C93.6782 67.565 93.5613 67.5022 93.4445 67.4415C93.2712 67.3494 93.1023 67.2531 92.9332 67.1526C93.0146 67.0396 93.1023 66.9286 93.192 66.8198C94.1685 65.6058 95.389 64.6119 96.7741 63.9028C98.1591 63.1937 99.6776 62.7854 101.23 62.7044C102.783 62.6234 104.336 62.8716 105.787 63.4328C107.238 63.994 108.554 64.8556 109.651 65.9615C110.032 66.3446 110.385 66.7546 110.707 67.1882C110.792 67.3012 110.874 67.4164 110.953 67.5336Z" fill="#8E17F0"/>
<path d="M102.703 58.3379C107.764 58.3379 111.866 54.2224 111.866 49.1457C111.866 44.0691 107.764 39.9536 102.703 39.9536C97.6422 39.9536 93.5397 44.0691 93.5397 49.1457C93.5397 54.2224 97.6422 58.3379 102.703 58.3379Z" fill="#2F2E41"/>
<path d="M105.14 58.3508C108.445 56.5384 109.66 52.3816 107.853 49.0662C106.046 45.7508 101.903 44.5323 98.5976 46.3447C95.2926 48.157 94.0779 52.3139 95.8846 55.6293C97.6913 58.9447 101.835 60.1632 105.14 58.3508Z" fill="#A0616A"/>
<path d="M109.035 48.0444C107.477 49.122 105.627 49.6954 103.734 49.6878C104.409 50.1575 105.178 50.4747 105.987 50.6176C103.47 51.1591 100.87 51.1738 98.3471 50.6607C97.7864 50.5705 97.2454 50.3841 96.7478 50.1097C96.4998 49.9707 96.2837 49.781 96.1136 49.5528C95.9436 49.3246 95.8233 49.0631 95.7605 48.7852C95.5929 47.8247 96.3391 46.9519 97.1145 46.3638C98.3017 45.477 99.6706 44.866 101.122 44.5751C102.574 44.2841 104.071 44.3205 105.507 44.6814C106.445 44.9245 107.384 45.3353 107.993 46.0905C108.602 46.8458 108.782 48.0101 108.202 48.7878L109.035 48.0444Z" fill="#2F2E41"/>
<path d="M102.286 31.9812C98.1904 31.9806 94.2065 33.3235 90.9419 35.8051C87.6773 38.2867 85.3111 41.7711 84.2039 45.727C83.0967 49.683 83.3092 53.8936 84.8091 57.7172C86.309 61.5407 89.0139 64.7675 92.5117 66.9056L92.6328 66.9768C92.7329 67.0375 92.8331 67.0961 92.9333 67.1526C93.1023 67.2531 93.2713 67.3494 93.4445 67.4415C93.5614 67.5022 93.6782 67.565 93.7951 67.6237C95.0987 68.2911 96.4766 68.8013 97.8999 69.1435C98.1942 69.2146 98.4884 69.2795 98.789 69.334C99.942 69.5531 101.113 69.6631 102.286 69.6626C102.583 69.6626 102.877 69.6564 103.171 69.6417C103.585 69.6229 103.994 69.5901 104.398 69.5433C104.889 69.4889 105.373 69.4149 105.851 69.3214C106.816 69.135 107.765 68.8725 108.689 68.5364C108.806 68.4924 108.923 68.4485 109.037 68.4045C109.353 68.2831 109.662 68.1533 109.966 68.0151C110.3 67.8644 110.629 67.7039 110.953 67.5336C114.202 65.8269 116.887 63.2111 118.683 60.0036C118.691 59.9869 118.702 59.9701 118.71 59.9534C119.668 58.2287 120.348 56.3627 120.724 54.4247C121.252 51.6964 121.172 48.8848 120.49 46.1912C119.808 43.4976 118.54 40.9886 116.778 38.8438C115.016 36.6991 112.803 34.9716 110.298 33.7852C107.793 32.5988 105.057 31.9828 102.286 31.9812ZM118.368 59.7085C118.351 59.7378 118.337 59.7671 118.32 59.7943C116.56 62.9545 113.912 65.5257 110.707 67.1882C110.388 67.3557 110.063 67.5127 109.732 67.6592C109.459 67.7828 109.179 67.9 108.898 68.0089C108.779 68.0549 108.658 68.101 108.537 68.1428C107.738 68.4353 106.92 68.6704 106.089 68.8462C105.472 68.978 104.848 69.0765 104.221 69.1414C103.835 69.1833 103.443 69.2126 103.048 69.2272C102.796 69.2377 102.541 69.244 102.286 69.244C101.151 69.2453 100.018 69.1395 98.9017 68.9279C98.2228 68.8023 97.5518 68.6373 96.8919 68.4338C95.8869 68.1223 94.9102 67.7252 93.9725 67.2468C93.864 67.1903 93.7555 67.1338 93.649 67.0752C93.4966 66.9935 93.3423 66.9098 93.192 66.8198C93.0793 66.757 92.9666 66.69 92.856 66.623C92.7913 66.5853 92.7266 66.5456 92.6619 66.5058C89.5952 64.6165 87.1489 61.8657 85.6265 58.5944C84.1041 55.3232 83.5726 51.6756 84.0979 48.1041C84.6233 44.5326 86.1824 41.1945 88.5817 38.5037C90.9811 35.813 94.1152 33.8882 97.5951 32.968C101.075 32.0478 104.748 32.1727 108.158 33.3274C111.567 34.482 114.564 36.6154 116.776 39.4631C118.988 42.3107 120.318 45.7472 120.601 49.3462C120.884 52.9451 120.108 56.5482 118.368 59.7085Z" fill="#3F3D56"/>
<path d="M98.0626 40.0804C97.964 39.0404 96.6939 38.4001 95.7007 38.7143C94.7075 39.0284 94.0554 40.0316 93.8583 41.0574C93.7635 41.4894 93.7546 41.936 93.8321 42.3715C93.9096 42.8069 94.0721 43.2228 94.3102 43.5951C94.8122 44.3199 95.7348 44.7723 96.5953 44.5883C97.5776 44.3782 98.2581 43.4161 98.4528 42.4276C98.6476 41.4392 98.4542 40.4202 98.2612 39.4315L98.0626 40.0804Z" fill="#2F2E41"/>
<path d="M112.041 41.5662C111.942 40.5262 110.672 39.8859 109.679 40.2001C108.686 40.5142 108.034 41.5175 107.837 42.5433C107.742 42.9753 107.733 43.4218 107.81 43.8573C107.888 44.2928 108.05 44.7086 108.288 45.081C108.79 45.8058 109.713 46.2581 110.573 46.0741C111.556 45.8641 112.236 44.9019 112.431 43.9135C112.626 42.9251 112.432 41.9061 112.239 40.9173L112.041 41.5662Z" fill="#2F2E41"/>
<path d="M69.8227 58.3516C69.6927 58.3515 69.5642 58.3241 69.4454 58.2714C69.3266 58.2186 69.2201 58.1415 69.1326 58.045L58.7772 46.7127C58.6597 46.5844 58.517 46.4819 58.358 46.4118C58.199 46.3416 58.0272 46.3053 57.8535 46.3051H3.13221C2.30178 46.3041 1.50564 45.9728 0.918433 45.3837C0.331231 44.7947 0.00093236 43.996 0 43.163V23.3672C0.000931808 22.5341 0.331231 21.7355 0.918433 21.1464C1.50564 20.5574 2.30178 20.226 3.13221 20.2251H74.0278C74.8582 20.226 75.6544 20.5574 76.2416 21.1464C76.8288 21.7355 77.1591 22.5341 77.16 23.3672V43.163C77.1591 43.996 76.8288 44.7947 76.2416 45.3837C75.6544 45.9728 74.8582 46.3041 74.0278 46.3051H72.0179C71.6857 46.3054 71.3672 46.438 71.1322 46.6737C70.8973 46.9093 70.7652 47.2289 70.7648 47.5621V57.4081C70.7656 57.5982 70.7088 57.784 70.6018 57.9409C70.4948 58.0978 70.3428 58.2183 70.1659 58.2865C70.0565 58.3294 69.9401 58.3515 69.8227 58.3516Z" fill="#E9FED9"/>
<path d="M69.8227 58.3516C69.6927 58.3515 69.5642 58.3241 69.4454 58.2714C69.3266 58.2186 69.2201 58.1415 69.1326 58.045L58.7772 46.7127C58.6597 46.5844 58.517 46.4819 58.358 46.4118C58.199 46.3416 58.0272 46.3053 57.8535 46.3051H3.13221C2.30178 46.3041 1.50564 45.9728 0.918433 45.3837C0.331231 44.7947 0.00093236 43.996 0 43.163V23.3672C0.000931808 22.5341 0.331231 21.7355 0.918433 21.1464C1.50564 20.5574 2.30178 20.226 3.13221 20.2251H74.0278C74.8582 20.226 75.6544 20.5574 76.2416 21.1464C76.8288 21.7355 77.1591 22.5341 77.16 23.3672V43.163C77.1591 43.996 76.8288 44.7947 76.2416 45.3837C75.6544 45.9728 74.8582 46.3041 74.0278 46.3051H72.0179C71.6857 46.3054 71.3672 46.438 71.1322 46.6737C70.8973 46.9093 70.7652 47.2289 70.7648 47.5621V57.4081C70.7656 57.5982 70.7088 57.784 70.6018 57.9409C70.4948 58.0978 70.3428 58.2183 70.1659 58.2865C70.0565 58.3294 69.9401 58.3515 69.8227 58.3516ZM3.13221 20.6438C2.41244 20.6446 1.72238 20.9318 1.21343 21.4423C0.704469 21.9529 0.418183 22.6451 0.41737 23.3672V43.163C0.418184 43.885 0.704472 44.5773 1.21343 45.0878C1.72238 45.5984 2.41244 45.8856 3.13221 45.8864H57.8535C58.0851 45.8866 58.3141 45.9351 58.526 46.0286C58.7379 46.1221 58.9282 46.2587 59.0849 46.4298L69.4403 57.7621C69.5114 57.8399 69.6042 57.8943 69.7067 57.9183C69.8092 57.9422 69.9165 57.9346 70.0145 57.8963C70.1126 57.8581 70.1968 57.791 70.2562 57.7039C70.3156 57.6168 70.3474 57.5137 70.3475 57.4081V47.5621C70.3479 47.1179 70.5241 46.6919 70.8372 46.3778C71.1504 46.0636 71.575 45.8869 72.0179 45.8864H74.0278C74.7476 45.8856 75.4376 45.5984 75.9466 45.0878C76.4556 44.5773 76.7418 43.885 76.7427 43.163V23.3672C76.7418 22.6451 76.4556 21.9529 75.9466 21.4423C75.4377 20.9318 74.7476 20.6446 74.0278 20.6438H3.13221Z" fill="#3F3D56"/>
<path d="M7.68295 28.9576C9.19666 28.9576 10.4238 27.7266 10.4238 26.2082C10.4238 24.6897 9.19666 23.4587 7.68295 23.4587C6.16924 23.4587 4.94214 24.6897 4.94214 26.2082C4.94214 27.7266 6.16924 28.9576 7.68295 28.9576Z" fill="#8E17F0"/>
<path d="M70.8302 41.4217H6.32983C6.13772 41.422 5.94745 41.3842 5.7699 41.3106C5.59235 41.237 5.431 41.1291 5.29507 40.9929C5.15915 40.8567 5.05132 40.695 4.97775 40.5169C4.90418 40.3389 4.86631 40.1481 4.86631 39.9554C4.86631 39.7627 4.90418 39.5718 4.97775 39.3938C5.05132 39.2158 5.15915 39.0541 5.29507 38.9179C5.431 38.7817 5.59235 38.6737 5.7699 38.6001C5.94745 38.5265 6.13772 38.4888 6.32983 38.489H70.8302C71.2176 38.4895 71.5889 38.6442 71.8627 38.9191C72.1365 39.1941 72.2902 39.5668 72.2902 39.9554C72.2902 40.344 72.1365 40.7167 71.8627 40.9916C71.5889 41.2666 71.2176 41.4213 70.8302 41.4217Z" fill="#C5D8B7"/>
<path d="M49.8173 35.1896H6.32983C6.13772 35.1898 5.94745 35.152 5.7699 35.0784C5.59235 35.0049 5.431 34.8969 5.29507 34.7607C5.15915 34.6245 5.05132 34.4628 4.97775 34.2848C4.90418 34.1067 4.86631 33.9159 4.86631 33.7232C4.86631 33.5305 4.90418 33.3397 4.97775 33.1616C5.05132 32.9836 5.15915 32.8219 5.29507 32.6857C5.431 32.5495 5.59235 32.4415 5.7699 32.368C5.94745 32.2944 6.13772 32.2566 6.32983 32.2568H49.8173C50.205 32.2568 50.5768 32.4113 50.851 32.6863C51.1251 32.9613 51.2791 33.3343 51.2791 33.7232C51.2791 34.1121 51.1251 34.4851 50.851 34.7601C50.5768 35.0351 50.205 35.1896 49.8173 35.1896Z" fill="#C5D8B7"/>
<path d="M115.834 125.485C115.657 125.417 115.505 125.296 115.398 125.139C115.291 124.983 115.234 124.797 115.235 124.607V114.761C115.235 114.427 115.103 114.108 114.868 113.872C114.633 113.637 114.314 113.504 113.982 113.504H111.972C111.142 113.503 110.346 113.171 109.758 112.582C109.171 111.993 108.841 111.195 108.84 110.361V90.5656C108.841 89.7326 109.171 88.934 109.758 88.3449C110.346 87.7559 111.142 87.4245 111.972 87.4236H182.868C183.698 87.4245 184.494 87.7559 185.082 88.3449C185.669 88.934 185.999 89.7326 186 90.5656V110.361C185.999 111.195 185.669 111.993 185.082 112.582C184.494 113.171 183.698 113.503 182.868 113.504H128.146C127.973 113.504 127.801 113.54 127.642 113.61C127.483 113.68 127.34 113.783 127.223 113.911L116.867 125.244C116.78 125.34 116.673 125.417 116.555 125.47C116.436 125.523 116.307 125.55 116.177 125.55C116.06 125.55 115.943 125.528 115.834 125.485Z" fill="#E9FED9"/>
<path d="M115.834 125.485C115.657 125.417 115.505 125.296 115.398 125.139C115.291 124.983 115.234 124.797 115.235 124.607V114.761C115.235 114.427 115.103 114.108 114.868 113.872C114.633 113.637 114.314 113.504 113.982 113.504H111.972C111.142 113.503 110.346 113.171 109.758 112.582C109.171 111.993 108.841 111.195 108.84 110.361V90.5656C108.841 89.7326 109.171 88.934 109.758 88.3449C110.346 87.7559 111.142 87.4245 111.972 87.4236H182.868C183.698 87.4245 184.494 87.7559 185.082 88.3449C185.669 88.934 185.999 89.7326 186 90.5656V110.361C185.999 111.195 185.669 111.993 185.082 112.582C184.494 113.171 183.698 113.503 182.868 113.504H128.146C127.973 113.504 127.801 113.54 127.642 113.61C127.483 113.68 127.34 113.783 127.223 113.911L116.867 125.244C116.78 125.34 116.673 125.417 116.555 125.47C116.436 125.523 116.307 125.55 116.177 125.55C116.06 125.55 115.943 125.528 115.834 125.485ZM111.972 87.8423C111.252 87.8431 110.562 88.1303 110.053 88.6408C109.544 89.1514 109.258 89.8436 109.257 90.5656V110.361C109.258 111.084 109.544 111.776 110.053 112.286C110.562 112.797 111.252 113.084 111.972 113.085H113.982C114.425 113.085 114.85 113.262 115.163 113.576C115.476 113.89 115.652 114.316 115.653 114.761V124.607C115.653 124.712 115.684 124.815 115.744 124.902C115.803 124.989 115.887 125.057 115.985 125.095C116.084 125.133 116.191 125.141 116.293 125.117C116.396 125.093 116.489 125.038 116.56 124.961L126.915 113.628C127.072 113.457 127.262 113.321 127.474 113.227C127.686 113.134 127.915 113.085 128.146 113.085H182.868C183.588 113.084 184.278 112.797 184.787 112.286C185.296 111.776 185.582 111.084 185.583 110.361V90.5656C185.582 89.8436 185.296 89.1514 184.787 88.6408C184.278 88.1303 183.588 87.8431 182.868 87.8423H111.972Z" fill="#3F3D56"/>
<path d="M93.7367 131.615C90.8294 133.483 87.461 134.501 84.0092 134.556C80.5573 134.611 77.1584 133.701 74.1933 131.927C74.7149 130.953 75.3758 130.061 76.155 129.279C77.3573 128.067 78.8204 127.148 80.4321 126.592C82.0438 126.036 83.7611 125.858 85.452 126.072C87.143 126.285 88.7626 126.885 90.1865 127.825C91.6103 128.764 92.8006 130.019 93.6657 131.492C93.6886 131.531 93.7137 131.573 93.7367 131.615Z" fill="#8E17F0"/>
<path d="M83.149 121.604C88.2434 121.604 92.3732 117.462 92.3732 112.351C92.3732 107.241 88.2434 103.098 83.149 103.098C78.0546 103.098 73.9248 107.241 73.9248 112.351C73.9248 117.462 78.0546 121.604 83.149 121.604Z" fill="#2F2E41"/>
<path d="M90.0127 118.878C91.8314 115.54 90.6087 111.356 87.2817 109.531C83.9547 107.707 79.7833 108.934 77.9646 112.271C76.146 115.608 77.3687 119.793 80.6956 121.617C84.0226 123.442 88.194 122.215 90.0127 118.878Z" fill="#FFB8B8"/>
<path d="M76.7748 111.243C78.3436 112.327 80.2057 112.905 82.1111 112.897C81.4314 113.37 80.6577 113.689 79.8431 113.833C82.3764 114.378 84.9946 114.393 87.5339 113.876C88.0983 113.785 88.6429 113.598 89.1439 113.322C89.3935 113.182 89.611 112.991 89.7822 112.761C89.9534 112.531 90.0745 112.268 90.1376 111.988C90.3064 111.021 89.5552 110.143 88.7747 109.551C87.5796 108.658 86.2016 108.043 84.7405 107.75C83.2794 107.457 81.7716 107.494 80.3263 107.857C79.3826 108.102 78.4371 108.515 77.8242 109.276C77.2112 110.036 77.0296 111.208 77.6136 111.991L76.7748 111.243Z" fill="#2F2E41"/>
<path d="M83.7135 134.768C79.196 134.766 74.8304 133.131 71.4176 130.162C68.0048 127.193 65.7735 123.089 65.1331 118.603C64.4927 114.117 65.4861 109.55 67.9311 105.739C70.3761 101.928 74.1087 99.1297 78.4443 97.8565C82.7798 96.5833 87.4276 96.9209 91.5352 98.8073C95.6427 100.694 98.9345 104.003 100.807 108.127C102.679 112.251 103.006 116.914 101.728 121.261C100.45 125.607 97.6531 129.346 93.8495 131.791C90.8248 133.737 87.3066 134.77 83.7135 134.768ZM83.7135 97.5049C80.0809 97.5046 76.5298 98.5848 73.5092 100.609C70.4887 102.633 68.1344 105.511 66.7441 108.877C65.3538 112.244 64.99 115.949 65.6986 119.523C66.4072 123.097 68.1564 126.38 70.725 128.956C73.2937 131.533 76.5663 133.288 80.1292 133.999C83.692 134.709 87.3849 134.344 90.741 132.95C94.097 131.555 96.9653 129.193 98.9833 126.163C101.001 123.133 102.078 119.571 102.078 115.927C102.072 111.043 100.136 106.36 96.693 102.907C93.2502 99.4531 88.5823 97.5104 83.7135 97.5049Z" fill="#3F3D56"/>
<path d="M117.66 95.9468C119.174 95.9468 120.401 94.7159 120.401 93.1974C120.401 91.679 119.174 90.448 117.66 90.448C116.146 90.448 114.919 91.679 114.919 93.1974C114.919 94.7159 116.146 95.9468 117.66 95.9468Z" fill="#8E17F0"/>
<path d="M180.807 108.411H116.307C116.115 108.411 115.925 108.373 115.747 108.3C115.569 108.226 115.408 108.118 115.272 107.982C115.136 107.846 115.028 107.684 114.955 107.506C114.881 107.328 114.843 107.137 114.843 106.945C114.843 106.752 114.881 106.561 114.955 106.383C115.028 106.205 115.136 106.043 115.272 105.907C115.408 105.771 115.569 105.663 115.747 105.589C115.925 105.516 116.115 105.478 116.307 105.478H180.807C181.195 105.478 181.567 105.633 181.841 105.908C182.115 106.183 182.269 106.556 182.269 106.945C182.269 107.334 182.115 107.707 181.841 107.982C181.567 108.256 181.195 108.411 180.807 108.411Z" fill="#C5D8B7"/>
<path d="M159.794 102.179H116.307C116.115 102.179 115.925 102.141 115.747 102.068C115.569 101.994 115.408 101.886 115.272 101.75C115.136 101.614 115.028 101.452 114.955 101.274C114.881 101.096 114.843 100.905 114.843 100.712C114.843 100.52 114.881 100.329 114.955 100.151C115.028 99.9729 115.136 99.8111 115.272 99.675C115.408 99.5388 115.569 99.4308 115.747 99.3572C115.925 99.2836 116.115 99.2459 116.307 99.2461H159.794C160.182 99.2466 160.553 99.4013 160.827 99.6762C161.101 99.9511 161.254 100.324 161.254 100.712C161.254 101.101 161.101 101.474 160.827 101.749C160.553 102.024 160.182 102.178 159.794 102.179Z" fill="#C5D8B7"/>
<path d="M115.746 127.359C118.57 127.359 120.859 127.104 120.859 126.79C120.859 126.475 118.57 126.22 115.746 126.22C112.922 126.22 110.632 126.475 110.632 126.79C110.632 127.104 112.922 127.359 115.746 127.359Z" fill="#F2F2F2"/>
<path d="M70.0438 60.3699C72.868 60.3699 75.1574 60.115 75.1574 59.8005C75.1574 59.4861 72.868 59.2312 70.0438 59.2312C67.2197 59.2312 64.9302 59.4861 64.9302 59.8005C64.9302 60.115 67.2197 60.3699 70.0438 60.3699Z" fill="#F2F2F2"/>
</g>
<defs>
<clipPath id="clip0_307_65305">
<rect width="186" height="156" fill="white"/>
</clipPath>
</defs>
</svg>
